<mxfile host="Electron" modified="2024-06-11T15:21:31.840Z" agent="Mozilla/5.0 (Windows NT 10.0; Win64; x64) AppleWebKit/537.36 (KHTML, like Gecko) draw.io/24.5.1 Chrome/124.0.6367.207 Electron/30.0.6 Safari/537.36" etag="TVxlBRkd9Db_hchmjvna" version="24.5.1" type="device" pages="3">
  <diagram id="E1HWASvqubKjkdyDMyWV" name="HIL_RelationshipOnly">
    <mxGraphModel dx="2659" dy="415" grid="1" gridSize="10" guides="1" tooltips="1" connect="1" arrows="1" fold="1" page="1" pageScale="1" pageWidth="850" pageHeight="1100" math="0" shadow="0">
      <root>
        <mxCell id="0" />
        <mxCell id="1" parent="0" />
        <mxCell id="zdZPcjxEUhCVuOafy6tz-1" value="" style="rounded=0;whiteSpace=wrap;html=1;fillColor=none;fontStyle=1;fontSize=16;fontFamily=Times New Roman;" parent="1" vertex="1">
          <mxGeometry x="-1670" y="270" width="580" height="110" as="geometry" />
        </mxCell>
        <mxCell id="zdZPcjxEUhCVuOafy6tz-2" value="&lt;font style=&quot;font-size: 16px;&quot;&gt;Location&lt;/font&gt;" style="rounded=1;whiteSpace=wrap;html=1;fillColor=#a20025;strokeColor=#6F0000;fontColor=#ffffff;fontStyle=1;flipV=1;fontSize=16;fontFamily=Times New Roman;" parent="1" vertex="1">
          <mxGeometry x="-1650" y="330" width="120" height="30" as="geometry" />
        </mxCell>
        <mxCell id="zdZPcjxEUhCVuOafy6tz-3" value="&lt;font style=&quot;font-size: 16px;&quot;&gt;Equipment&lt;/font&gt;" style="rounded=1;whiteSpace=wrap;html=1;fillColor=#008a00;strokeColor=#005700;fontColor=#ffffff;fontStyle=1;flipV=1;fontSize=16;fontFamily=Times New Roman;" parent="1" vertex="1">
          <mxGeometry x="-1510" y="330" width="120" height="30" as="geometry" />
        </mxCell>
        <mxCell id="zdZPcjxEUhCVuOafy6tz-4" value="&lt;span style=&quot;font-size: 16px;&quot;&gt;Occupant&lt;/span&gt;" style="rounded=1;whiteSpace=wrap;html=1;fillColor=#1ba1e2;strokeColor=#006EAF;fontColor=#ffffff;fontStyle=1;flipV=1;fontSize=16;fontFamily=Times New Roman;" parent="1" vertex="1">
          <mxGeometry x="-1370" y="330" width="120" height="30" as="geometry" />
        </mxCell>
        <mxCell id="zdZPcjxEUhCVuOafy6tz-5" value="&lt;b style=&quot;border-color: var(--border-color); font-size: 16px;&quot;&gt;&lt;font style=&quot;font-size: 16px;&quot;&gt;LEGEND&lt;/font&gt;&lt;/b&gt;" style="text;html=1;strokeColor=default;fillColor=#fff2cc;align=center;verticalAlign=middle;whiteSpace=wrap;rounded=0;fontSize=16;fontFamily=Times New Roman;" parent="1" vertex="1">
          <mxGeometry x="-1670" y="250" width="580" height="20" as="geometry" />
        </mxCell>
        <mxCell id="zdZPcjxEUhCVuOafy6tz-6" value="" style="endArrow=classic;html=1;rounded=0;strokeWidth=2;fontSize=16;fontFamily=Times New Roman;" parent="1" edge="1">
          <mxGeometry width="50" height="50" relative="1" as="geometry">
            <mxPoint x="-1650" y="310" as="sourcePoint" />
            <mxPoint x="-1530" y="310" as="targetPoint" />
          </mxGeometry>
        </mxCell>
        <mxCell id="zdZPcjxEUhCVuOafy6tz-7" value="brick:Feeds" style="edgeLabel;html=1;align=center;verticalAlign=middle;resizable=0;points=[];fontStyle=1;fontSize=16;fontFamily=Times New Roman;" parent="zdZPcjxEUhCVuOafy6tz-6" vertex="1" connectable="0">
          <mxGeometry x="-0.0066" relative="1" as="geometry">
            <mxPoint y="-20" as="offset" />
          </mxGeometry>
        </mxCell>
        <mxCell id="zdZPcjxEUhCVuOafy6tz-8" value="" style="endArrow=classic;html=1;rounded=0;strokeWidth=2;dashed=1;dashPattern=1 1;fontSize=16;fontFamily=Times New Roman;" parent="1" edge="1">
          <mxGeometry width="50" height="50" relative="1" as="geometry">
            <mxPoint x="-1510" y="310" as="sourcePoint" />
            <mxPoint x="-1390" y="310" as="targetPoint" />
          </mxGeometry>
        </mxCell>
        <mxCell id="zdZPcjxEUhCVuOafy6tz-9" value="brick:isLocationOf" style="edgeLabel;html=1;align=center;verticalAlign=middle;resizable=0;points=[];fontStyle=1;fontSize=16;fontFamily=Times New Roman;" parent="zdZPcjxEUhCVuOafy6tz-8" vertex="1" connectable="0">
          <mxGeometry x="-0.0066" relative="1" as="geometry">
            <mxPoint y="-20" as="offset" />
          </mxGeometry>
        </mxCell>
        <mxCell id="zdZPcjxEUhCVuOafy6tz-10" value="" style="endArrow=diamond;html=1;rounded=0;strokeWidth=2;endFill=1;fontSize=16;fontFamily=Times New Roman;" parent="1" edge="1">
          <mxGeometry width="50" height="50" relative="1" as="geometry">
            <mxPoint x="-1370" y="310" as="sourcePoint" />
            <mxPoint x="-1250" y="310" as="targetPoint" />
          </mxGeometry>
        </mxCell>
        <mxCell id="zdZPcjxEUhCVuOafy6tz-11" value="brick:hasPart" style="edgeLabel;html=1;align=center;verticalAlign=middle;resizable=0;points=[];fontStyle=1;fontSize=16;fontFamily=Times New Roman;" parent="zdZPcjxEUhCVuOafy6tz-10" vertex="1" connectable="0">
          <mxGeometry x="-0.0066" relative="1" as="geometry">
            <mxPoint y="-20" as="offset" />
          </mxGeometry>
        </mxCell>
        <mxCell id="zdZPcjxEUhCVuOafy6tz-12" value="" style="endArrow=oval;html=1;rounded=0;strokeWidth=2;endFill=1;fontSize=16;fontFamily=Times New Roman;" parent="1" edge="1">
          <mxGeometry width="50" height="50" relative="1" as="geometry">
            <mxPoint x="-1230" y="310" as="sourcePoint" />
            <mxPoint x="-1110" y="310" as="targetPoint" />
          </mxGeometry>
        </mxCell>
        <mxCell id="zdZPcjxEUhCVuOafy6tz-13" value="occ:isAccessibleBy" style="edgeLabel;html=1;align=center;verticalAlign=middle;resizable=0;points=[];fontStyle=1;fontSize=16;fontFamily=Times New Roman;" parent="zdZPcjxEUhCVuOafy6tz-12" vertex="1" connectable="0">
          <mxGeometry x="-0.0066" relative="1" as="geometry">
            <mxPoint y="-20" as="offset" />
          </mxGeometry>
        </mxCell>
        <mxCell id="UBpcA5kvh4tRO91iTyrx-2" value="&lt;span style=&quot;font-size: 16px;&quot;&gt;occ##&lt;/span&gt;" style="rounded=1;whiteSpace=wrap;html=1;fillColor=#1ba1e2;strokeColor=#006EAF;fontColor=#ffffff;fontStyle=1;strokeWidth=2;fontSize=16;fontFamily=Times New Roman;" parent="1" vertex="1">
          <mxGeometry x="-1030" y="200" width="130" height="30" as="geometry" />
        </mxCell>
        <mxCell id="UBpcA5kvh4tRO91iTyrx-3" value="&lt;span style=&quot;font-size: 16px;&quot;&gt;tstat&lt;/span&gt;" style="rounded=1;whiteSpace=wrap;html=1;fillColor=#008a00;strokeColor=#005700;fontColor=#ffffff;fontStyle=1;strokeWidth=2;fontSize=16;fontFamily=Times New Roman;" parent="1" vertex="1">
          <mxGeometry x="-1510" y="200" width="120" height="30" as="geometry" />
        </mxCell>
        <mxCell id="UBpcA5kvh4tRO91iTyrx-8" style="edgeStyle=orthogonalEdgeStyle;rounded=0;orthogonalLoop=1;jettySize=auto;html=1;exitX=1;exitY=0.5;exitDx=0;exitDy=0;entryX=0;entryY=0.5;entryDx=0;entryDy=0;strokeWidth=2;fontSize=16;fontFamily=Times New Roman;" parent="1" source="UBpcA5kvh4tRO91iTyrx-13" target="UBpcA5kvh4tRO91iTyrx-26" edge="1">
          <mxGeometry relative="1" as="geometry" />
        </mxCell>
        <mxCell id="UBpcA5kvh4tRO91iTyrx-9" style="edgeStyle=orthogonalEdgeStyle;rounded=0;orthogonalLoop=1;jettySize=auto;html=1;exitX=0.5;exitY=0;exitDx=0;exitDy=0;entryX=0.5;entryY=1;entryDx=0;entryDy=0;strokeWidth=2;fontSize=16;fontFamily=Times New Roman;" parent="1" source="UBpcA5kvh4tRO91iTyrx-13" target="UBpcA5kvh4tRO91iTyrx-23" edge="1">
          <mxGeometry relative="1" as="geometry" />
        </mxCell>
        <mxCell id="UBpcA5kvh4tRO91iTyrx-10" style="edgeStyle=orthogonalEdgeStyle;rounded=0;orthogonalLoop=1;jettySize=auto;html=1;exitX=0.5;exitY=1;exitDx=0;exitDy=0;entryX=0.5;entryY=0;entryDx=0;entryDy=0;strokeWidth=2;endArrow=diamond;endFill=1;fontSize=16;fontFamily=Times New Roman;" parent="1" source="UBpcA5kvh4tRO91iTyrx-13" target="UBpcA5kvh4tRO91iTyrx-3" edge="1">
          <mxGeometry relative="1" as="geometry" />
        </mxCell>
        <mxCell id="Uc4DXHfygTArdV4fBSay-4" style="edgeStyle=orthogonalEdgeStyle;rounded=0;orthogonalLoop=1;jettySize=auto;html=1;exitX=0;exitY=0.25;exitDx=0;exitDy=0;entryX=1;entryY=0.5;entryDx=0;entryDy=0;strokeWidth=2;" edge="1" parent="1" source="UBpcA5kvh4tRO91iTyrx-13" target="Uc4DXHfygTArdV4fBSay-1">
          <mxGeometry relative="1" as="geometry" />
        </mxCell>
        <mxCell id="UBpcA5kvh4tRO91iTyrx-13" value="&lt;span style=&quot;font-size: 16px;&quot;&gt;heat_pump&lt;/span&gt;" style="rounded=1;whiteSpace=wrap;html=1;fillColor=#008a00;strokeColor=#005700;fontColor=#ffffff;fontStyle=1;strokeWidth=2;fontSize=16;fontFamily=Times New Roman;" parent="1" vertex="1">
          <mxGeometry x="-1510" y="150" width="120" height="30" as="geometry" />
        </mxCell>
        <mxCell id="Uc4DXHfygTArdV4fBSay-3" style="edgeStyle=orthogonalEdgeStyle;rounded=0;orthogonalLoop=1;jettySize=auto;html=1;exitX=0.25;exitY=1;exitDx=0;exitDy=0;entryX=0.25;entryY=0;entryDx=0;entryDy=0;strokeWidth=2;" edge="1" parent="1" source="UBpcA5kvh4tRO91iTyrx-23" target="UBpcA5kvh4tRO91iTyrx-13">
          <mxGeometry relative="1" as="geometry" />
        </mxCell>
        <mxCell id="UBpcA5kvh4tRO91iTyrx-23" value="&lt;span style=&quot;font-size: 16px;&quot;&gt;zn_emu&lt;/span&gt;" style="rounded=1;whiteSpace=wrap;html=1;fillColor=#a20025;strokeColor=#6F0000;fontColor=#ffffff;fontStyle=1;strokeWidth=2;fontSize=16;fontFamily=Times New Roman;" parent="1" vertex="1">
          <mxGeometry x="-1510" y="100" width="120" height="30" as="geometry" />
        </mxCell>
        <mxCell id="UBpcA5kvh4tRO91iTyrx-24" style="edgeStyle=orthogonalEdgeStyle;rounded=0;orthogonalLoop=1;jettySize=auto;html=1;exitX=0.5;exitY=1;exitDx=0;exitDy=0;entryX=1;entryY=0.5;entryDx=0;entryDy=0;dashed=1;dashPattern=1 1;strokeWidth=2;fontSize=16;fontFamily=Times New Roman;" parent="1" source="UBpcA5kvh4tRO91iTyrx-26" target="UBpcA5kvh4tRO91iTyrx-3" edge="1">
          <mxGeometry relative="1" as="geometry" />
        </mxCell>
        <mxCell id="UBpcA5kvh4tRO91iTyrx-25" style="edgeStyle=orthogonalEdgeStyle;rounded=0;orthogonalLoop=1;jettySize=auto;html=1;exitX=1;exitY=0.5;exitDx=0;exitDy=0;entryX=0;entryY=0.5;entryDx=0;entryDy=0;dashed=1;strokeWidth=2;dashPattern=1 1;fontSize=16;fontFamily=Times New Roman;" parent="1" source="UBpcA5kvh4tRO91iTyrx-26" target="UBpcA5kvh4tRO91iTyrx-39" edge="1">
          <mxGeometry relative="1" as="geometry" />
        </mxCell>
        <mxCell id="UBpcA5kvh4tRO91iTyrx-26" value="&lt;span style=&quot;font-size: 16px;&quot;&gt;zn_sim&lt;/span&gt;" style="rounded=1;whiteSpace=wrap;html=1;fillColor=#a20025;strokeColor=#6F0000;fontColor=#ffffff;fontStyle=1;strokeWidth=2;fontSize=16;fontFamily=Times New Roman;" parent="1" vertex="1">
          <mxGeometry x="-1350" y="150" width="120" height="30" as="geometry" />
        </mxCell>
        <mxCell id="UBpcA5kvh4tRO91iTyrx-30" style="edgeStyle=orthogonalEdgeStyle;rounded=0;orthogonalLoop=1;jettySize=auto;html=1;exitX=0.5;exitY=1;exitDx=0;exitDy=0;entryX=0.5;entryY=0;entryDx=0;entryDy=0;fontSize=16;strokeWidth=2;fontFamily=Times New Roman;" parent="1" source="UBpcA5kvh4tRO91iTyrx-31" target="UBpcA5kvh4tRO91iTyrx-23" edge="1">
          <mxGeometry relative="1" as="geometry" />
        </mxCell>
        <mxCell id="UBpcA5kvh4tRO91iTyrx-31" value="&lt;span style=&quot;font-size: 16px;&quot;&gt;zn_emulator&lt;/span&gt;" style="rounded=1;whiteSpace=wrap;html=1;fillColor=#008a00;strokeColor=#005700;fontColor=#ffffff;fontStyle=1;strokeWidth=2;fontSize=16;fontFamily=Times New Roman;" parent="1" vertex="1">
          <mxGeometry x="-1510" y="50" width="120" height="30" as="geometry" />
        </mxCell>
        <mxCell id="UBpcA5kvh4tRO91iTyrx-34" style="edgeStyle=orthogonalEdgeStyle;rounded=0;orthogonalLoop=1;jettySize=auto;html=1;exitX=1;exitY=0.75;exitDx=0;exitDy=0;entryX=0;entryY=0.75;entryDx=0;entryDy=0;jumpStyle=none;strokeWidth=2;endArrow=oval;endFill=1;fontSize=16;fontFamily=Times New Roman;" parent="1" source="UBpcA5kvh4tRO91iTyrx-3" target="UBpcA5kvh4tRO91iTyrx-2" edge="1">
          <mxGeometry relative="1" as="geometry" />
        </mxCell>
        <mxCell id="UBpcA5kvh4tRO91iTyrx-36" style="edgeStyle=orthogonalEdgeStyle;rounded=0;orthogonalLoop=1;jettySize=auto;html=1;exitX=1;exitY=0.5;exitDx=0;exitDy=0;entryX=0;entryY=0.5;entryDx=0;entryDy=0;dashed=1;dashPattern=1 1;strokeWidth=2;fontSize=16;fontFamily=Times New Roman;" parent="1" source="UBpcA5kvh4tRO91iTyrx-39" target="UBpcA5kvh4tRO91iTyrx-2" edge="1">
          <mxGeometry relative="1" as="geometry" />
        </mxCell>
        <mxCell id="UBpcA5kvh4tRO91iTyrx-37" style="edgeStyle=orthogonalEdgeStyle;rounded=0;orthogonalLoop=1;jettySize=auto;html=1;exitX=1;exitY=0.5;exitDx=0;exitDy=0;entryX=0;entryY=0.5;entryDx=0;entryDy=0;dashed=1;dashPattern=1 1;strokeWidth=2;fontSize=16;fontFamily=Times New Roman;" parent="1" source="UBpcA5kvh4tRO91iTyrx-39" target="UBpcA5kvh4tRO91iTyrx-49" edge="1">
          <mxGeometry relative="1" as="geometry" />
        </mxCell>
        <mxCell id="UBpcA5kvh4tRO91iTyrx-38" style="edgeStyle=orthogonalEdgeStyle;rounded=0;orthogonalLoop=1;jettySize=auto;html=1;exitX=1;exitY=0.5;exitDx=0;exitDy=0;entryX=0;entryY=0.5;entryDx=0;entryDy=0;dashed=1;dashPattern=1 1;strokeWidth=2;fontSize=16;fontFamily=Times New Roman;" parent="1" source="UBpcA5kvh4tRO91iTyrx-39" target="UBpcA5kvh4tRO91iTyrx-51" edge="1">
          <mxGeometry relative="1" as="geometry" />
        </mxCell>
        <mxCell id="UBpcA5kvh4tRO91iTyrx-39" value="&lt;span style=&quot;font-size: 16px;&quot;&gt;occ##_loc&lt;/span&gt;" style="rounded=1;whiteSpace=wrap;html=1;fillColor=#a20025;strokeColor=#6F0000;fontColor=#ffffff;fontStyle=1;strokeWidth=2;fontSize=16;fontFamily=Times New Roman;" parent="1" vertex="1">
          <mxGeometry x="-1190" y="150" width="120" height="30" as="geometry" />
        </mxCell>
        <mxCell id="UBpcA5kvh4tRO91iTyrx-48" style="edgeStyle=orthogonalEdgeStyle;rounded=0;orthogonalLoop=1;jettySize=auto;html=1;exitX=1;exitY=0.5;exitDx=0;exitDy=0;entryX=1;entryY=0.5;entryDx=0;entryDy=0;strokeWidth=2;endArrow=oval;endFill=1;fontSize=16;fontFamily=Times New Roman;" parent="1" source="UBpcA5kvh4tRO91iTyrx-49" target="UBpcA5kvh4tRO91iTyrx-2" edge="1">
          <mxGeometry relative="1" as="geometry" />
        </mxCell>
        <mxCell id="UBpcA5kvh4tRO91iTyrx-49" value="&lt;span style=&quot;font-size: 16px;&quot;&gt;occ##_pfan&lt;/span&gt;" style="rounded=1;whiteSpace=wrap;html=1;fillColor=#008a00;strokeColor=#005700;fontColor=#ffffff;fontStyle=1;strokeWidth=2;fontSize=16;fontFamily=Times New Roman;" parent="1" vertex="1">
          <mxGeometry x="-1030" y="150" width="130" height="30" as="geometry" />
        </mxCell>
        <mxCell id="UBpcA5kvh4tRO91iTyrx-50" style="edgeStyle=orthogonalEdgeStyle;rounded=0;orthogonalLoop=1;jettySize=auto;html=1;exitX=1;exitY=0.5;exitDx=0;exitDy=0;entryX=1;entryY=0.5;entryDx=0;entryDy=0;strokeWidth=2;endArrow=oval;endFill=1;fontSize=16;fontFamily=Times New Roman;" parent="1" source="UBpcA5kvh4tRO91iTyrx-51" target="UBpcA5kvh4tRO91iTyrx-2" edge="1">
          <mxGeometry relative="1" as="geometry" />
        </mxCell>
        <mxCell id="UBpcA5kvh4tRO91iTyrx-51" value="&lt;span style=&quot;font-size: 16px;&quot;&gt;occ##_pheater&lt;/span&gt;" style="rounded=1;whiteSpace=wrap;html=1;fillColor=#008a00;strokeColor=#005700;fontColor=#ffffff;fontStyle=1;strokeWidth=2;fontSize=16;fontFamily=Times New Roman;" parent="1" vertex="1">
          <mxGeometry x="-1030" y="100" width="130" height="30" as="geometry" />
        </mxCell>
        <mxCell id="UBpcA5kvh4tRO91iTyrx-68" style="edgeStyle=orthogonalEdgeStyle;rounded=0;orthogonalLoop=1;jettySize=auto;html=1;exitX=1;exitY=0.5;exitDx=0;exitDy=0;entryX=0;entryY=0.5;entryDx=0;entryDy=0;fontSize=16;strokeWidth=2;fontFamily=Times New Roman;" parent="1" source="UBpcA5kvh4tRO91iTyrx-59" target="UBpcA5kvh4tRO91iTyrx-13" edge="1">
          <mxGeometry relative="1" as="geometry" />
        </mxCell>
        <mxCell id="UBpcA5kvh4tRO91iTyrx-59" value="&lt;span style=&quot;font-size: 16px;&quot;&gt;water_emulator&lt;/span&gt;" style="rounded=1;whiteSpace=wrap;html=1;fillColor=#008a00;strokeColor=#005700;fontColor=#ffffff;fontStyle=1;strokeWidth=2;fontSize=16;fontFamily=Times New Roman;" parent="1" vertex="1">
          <mxGeometry x="-1670" y="150" width="120" height="30" as="geometry" />
        </mxCell>
        <mxCell id="8AeDxEZlMSp7aprsbeYe-1" value="&lt;b style=&quot;border-color: var(--border-color); font-size: 16px;&quot;&gt;&lt;font style=&quot;font-size: 16px;&quot;&gt;NOTES&lt;/font&gt;&lt;/b&gt;" style="text;html=1;strokeColor=default;fillColor=#fff2cc;align=center;verticalAlign=middle;whiteSpace=wrap;rounded=0;fontSize=16;fontFamily=Times New Roman;" parent="1" vertex="1">
          <mxGeometry x="-1070" y="250" width="190" height="20" as="geometry" />
        </mxCell>
        <mxCell id="8AeDxEZlMSp7aprsbeYe-2" value="&lt;div style=&quot;font-size: 16px;&quot;&gt;&lt;b style=&quot;text-align: center; font-size: 16px;&quot;&gt;&lt;font style=&quot;font-size: 16px;&quot;&gt;Occupant related equipment and datapoint names can be derived by changing `##`.&amp;nbsp;&amp;nbsp;&lt;/font&gt;&lt;/b&gt;&lt;br style=&quot;font-size: 16px;&quot;&gt;&lt;/div&gt;" style="rounded=0;whiteSpace=wrap;html=1;fontStyle=1;align=left;fontSize=16;fontFamily=Times New Roman;" parent="1" vertex="1">
          <mxGeometry x="-1070" y="270" width="190" height="110" as="geometry" />
        </mxCell>
        <mxCell id="YW-T9gPhOg0a0qi0p6tH-2" style="edgeStyle=orthogonalEdgeStyle;rounded=0;orthogonalLoop=1;jettySize=auto;html=1;exitX=0.5;exitY=1;exitDx=0;exitDy=0;entryX=0.5;entryY=0;entryDx=0;entryDy=0;strokeWidth=2;dashed=1;dashPattern=1 1;fontFamily=Times New Roman;" parent="1" source="YW-T9gPhOg0a0qi0p6tH-1" target="UBpcA5kvh4tRO91iTyrx-26" edge="1">
          <mxGeometry relative="1" as="geometry" />
        </mxCell>
        <mxCell id="YW-T9gPhOg0a0qi0p6tH-1" value="&lt;span style=&quot;font-size: 16px;&quot;&gt;bldg_sim&lt;/span&gt;" style="rounded=1;whiteSpace=wrap;html=1;fillColor=#a20025;strokeColor=#6F0000;fontColor=#ffffff;fontStyle=1;strokeWidth=2;fontSize=16;fontFamily=Times New Roman;" parent="1" vertex="1">
          <mxGeometry x="-1350" y="100" width="120" height="30" as="geometry" />
        </mxCell>
        <mxCell id="YW-T9gPhOg0a0qi0p6tH-5" style="edgeStyle=orthogonalEdgeStyle;rounded=0;orthogonalLoop=1;jettySize=auto;html=1;exitX=0.5;exitY=1;exitDx=0;exitDy=0;entryX=0.5;entryY=0;entryDx=0;entryDy=0;strokeWidth=2;dashed=1;dashPattern=1 1;fontFamily=Times New Roman;" parent="1" source="YW-T9gPhOg0a0qi0p6tH-4" target="YW-T9gPhOg0a0qi0p6tH-1" edge="1">
          <mxGeometry relative="1" as="geometry" />
        </mxCell>
        <mxCell id="Uc4DXHfygTArdV4fBSay-2" style="edgeStyle=orthogonalEdgeStyle;rounded=0;orthogonalLoop=1;jettySize=auto;html=1;exitX=0.5;exitY=0;exitDx=0;exitDy=0;entryX=0.5;entryY=0;entryDx=0;entryDy=0;strokeWidth=2;dashed=1;dashPattern=1 1;" edge="1" parent="1" source="YW-T9gPhOg0a0qi0p6tH-4" target="Uc4DXHfygTArdV4fBSay-1">
          <mxGeometry relative="1" as="geometry" />
        </mxCell>
        <mxCell id="YW-T9gPhOg0a0qi0p6tH-4" value="&lt;span style=&quot;font-size: 16px;&quot;&gt;out_sim&lt;/span&gt;" style="rounded=1;whiteSpace=wrap;html=1;fillColor=#a20025;strokeColor=#6F0000;fontColor=#ffffff;fontStyle=1;strokeWidth=2;fontSize=16;fontFamily=Times New Roman;" parent="1" vertex="1">
          <mxGeometry x="-1350" y="50" width="120" height="30" as="geometry" />
        </mxCell>
        <mxCell id="bsfXJb1l-qo89oHIkG1c-2" value="" style="rounded=0;whiteSpace=wrap;html=1;strokeColor=none;fillColor=none;" parent="1" vertex="1">
          <mxGeometry x="-1680" y="190" width="10" height="30" as="geometry" />
        </mxCell>
        <mxCell id="bsfXJb1l-qo89oHIkG1c-3" value="" style="rounded=0;whiteSpace=wrap;html=1;strokeColor=none;fillColor=none;" parent="1" vertex="1">
          <mxGeometry x="-880" y="220" width="10" height="20" as="geometry" />
        </mxCell>
        <mxCell id="Uc4DXHfygTArdV4fBSay-1" value="&lt;span style=&quot;font-size: 16px;&quot;&gt;ground_hx_sim&lt;/span&gt;" style="rounded=1;whiteSpace=wrap;html=1;fillColor=#008a00;strokeColor=#005700;fontColor=#ffffff;fontStyle=1;fontSize=16;fontFamily=Times New Roman;" vertex="1" parent="1">
          <mxGeometry x="-1670" y="100" width="120" height="30" as="geometry" />
        </mxCell>
      </root>
    </mxGraphModel>
  </diagram>
  <diagram id="z_pDpArpEYIK8VDSpOtn" name="Points">
    <mxGraphModel dx="2659" dy="415" grid="1" gridSize="10" guides="1" tooltips="1" connect="1" arrows="1" fold="1" page="1" pageScale="1" pageWidth="850" pageHeight="1100" math="0" shadow="0">
      <root>
        <mxCell id="0" />
        <mxCell id="1" parent="0" />
        <mxCell id="TOrspAAc8ZJOiZQ5sblr-1" value="" style="shape=table;startSize=0;container=1;collapsible=0;childLayout=tableLayout;fontSize=16;fontStyle=1;align=center;fontFamily=Times New Roman;" parent="1" vertex="1">
          <mxGeometry x="-1700" y="250" width="840" height="309" as="geometry" />
        </mxCell>
        <mxCell id="TOrspAAc8ZJOiZQ5sblr-2" value="" style="shape=tableRow;horizontal=0;startSize=0;swimlaneHead=0;swimlaneBody=0;strokeColor=inherit;top=0;left=0;bottom=0;right=0;collapsible=0;dropTarget=0;fillColor=none;points=[[0,0.5],[1,0.5]];portConstraint=eastwest;fontSize=16;fontStyle=1;align=center;fontFamily=Times New Roman;" parent="TOrspAAc8ZJOiZQ5sblr-1" vertex="1">
          <mxGeometry width="840" height="23" as="geometry" />
        </mxCell>
        <mxCell id="TOrspAAc8ZJOiZQ5sblr-3" value="Entity" style="shape=partialRectangle;html=1;whiteSpace=wrap;connectable=0;overflow=hidden;top=0;left=0;bottom=0;right=0;pointerEvents=1;fontSize=16;fontStyle=1;align=left;fontFamily=Times New Roman;" parent="TOrspAAc8ZJOiZQ5sblr-2" vertex="1">
          <mxGeometry width="140" height="23" as="geometry">
            <mxRectangle width="140" height="23" as="alternateBounds" />
          </mxGeometry>
        </mxCell>
        <mxCell id="TOrspAAc8ZJOiZQ5sblr-4" value="&lt;span style=&quot;font-size: 16px;&quot;&gt;brick:hasPoint&lt;/span&gt;" style="shape=partialRectangle;html=1;whiteSpace=wrap;connectable=0;overflow=hidden;top=0;left=0;bottom=0;right=0;pointerEvents=1;fontSize=16;fontStyle=1;align=left;rowspan=1;colspan=5;fontFamily=Times New Roman;" parent="TOrspAAc8ZJOiZQ5sblr-2" vertex="1">
          <mxGeometry x="140" width="700" height="23" as="geometry">
            <mxRectangle width="140" height="23" as="alternateBounds" />
          </mxGeometry>
        </mxCell>
        <mxCell id="TOrspAAc8ZJOiZQ5sblr-5" style="shape=partialRectangle;html=1;whiteSpace=wrap;connectable=0;strokeColor=#36393d;overflow=hidden;fillColor=#eeeeee;top=0;left=0;bottom=0;right=0;pointerEvents=1;fontSize=16;fontStyle=1;align=left;" parent="TOrspAAc8ZJOiZQ5sblr-2" vertex="1" visible="0">
          <mxGeometry x="280" width="141" height="23" as="geometry">
            <mxRectangle width="141" height="23" as="alternateBounds" />
          </mxGeometry>
        </mxCell>
        <mxCell id="TOrspAAc8ZJOiZQ5sblr-6" style="shape=partialRectangle;html=1;whiteSpace=wrap;connectable=0;strokeColor=#36393d;overflow=hidden;fillColor=#eeeeee;top=0;left=0;bottom=0;right=0;pointerEvents=1;fontSize=16;fontStyle=1;align=left;" parent="TOrspAAc8ZJOiZQ5sblr-2" vertex="1" visible="0">
          <mxGeometry x="421" width="139" height="23" as="geometry">
            <mxRectangle width="139" height="23" as="alternateBounds" />
          </mxGeometry>
        </mxCell>
        <mxCell id="TOrspAAc8ZJOiZQ5sblr-7" style="shape=partialRectangle;html=1;whiteSpace=wrap;connectable=0;strokeColor=#36393d;overflow=hidden;fillColor=#eeeeee;top=0;left=0;bottom=0;right=0;pointerEvents=1;fontSize=16;fontStyle=1;align=left;" parent="TOrspAAc8ZJOiZQ5sblr-2" vertex="1" visible="0">
          <mxGeometry x="560" width="140" height="23" as="geometry">
            <mxRectangle width="140" height="23" as="alternateBounds" />
          </mxGeometry>
        </mxCell>
        <mxCell id="TOrspAAc8ZJOiZQ5sblr-8" style="shape=partialRectangle;html=1;whiteSpace=wrap;connectable=0;strokeColor=#36393d;overflow=hidden;fillColor=#eeeeee;top=0;left=0;bottom=0;right=0;pointerEvents=1;fontSize=16;fontStyle=1;align=left;" parent="TOrspAAc8ZJOiZQ5sblr-2" vertex="1" visible="0">
          <mxGeometry x="700" width="140" height="23" as="geometry">
            <mxRectangle width="140" height="23" as="alternateBounds" />
          </mxGeometry>
        </mxCell>
        <mxCell id="TOrspAAc8ZJOiZQ5sblr-9" style="shape=tableRow;horizontal=0;startSize=0;swimlaneHead=0;swimlaneBody=0;strokeColor=inherit;top=0;left=0;bottom=0;right=0;collapsible=0;dropTarget=0;fillColor=none;points=[[0,0.5],[1,0.5]];portConstraint=eastwest;fontSize=16;fontStyle=1;align=center;fontFamily=Times New Roman;" parent="TOrspAAc8ZJOiZQ5sblr-1" vertex="1">
          <mxGeometry y="23" width="840" height="22" as="geometry" />
        </mxCell>
        <mxCell id="TOrspAAc8ZJOiZQ5sblr-10" value="water_emulator" style="shape=partialRectangle;html=1;whiteSpace=wrap;connectable=0;strokeColor=#005700;overflow=hidden;fillColor=#008a00;top=0;left=0;bottom=0;right=0;pointerEvents=1;fontSize=16;fontStyle=1;align=left;fontColor=#ffffff;fontFamily=Times New Roman;" parent="TOrspAAc8ZJOiZQ5sblr-9" vertex="1">
          <mxGeometry width="140" height="22" as="geometry">
            <mxRectangle width="140" height="22" as="alternateBounds" />
          </mxGeometry>
        </mxCell>
        <mxCell id="TOrspAAc8ZJOiZQ5sblr-11" value="iw_temp_spt_emu" style="shape=partialRectangle;html=1;whiteSpace=wrap;connectable=0;strokeColor=#666666;overflow=hidden;fillColor=#f5f5f5;top=0;left=0;bottom=0;right=0;pointerEvents=1;fontSize=16;fontStyle=1;align=left;fontColor=#333333;fontFamily=Times New Roman;" parent="TOrspAAc8ZJOiZQ5sblr-9" vertex="1">
          <mxGeometry x="140" width="140" height="22" as="geometry">
            <mxRectangle width="140" height="22" as="alternateBounds" />
          </mxGeometry>
        </mxCell>
        <mxCell id="TOrspAAc8ZJOiZQ5sblr-12" value="&lt;span style=&quot;font-family: &amp;quot;Times New Roman&amp;quot;;&quot;&gt;iw_temp&lt;/span&gt;" style="shape=partialRectangle;html=1;whiteSpace=wrap;connectable=0;strokeColor=#666666;overflow=hidden;fillColor=#f5f5f5;top=0;left=0;bottom=0;right=0;pointerEvents=1;fontSize=16;fontStyle=1;align=left;fontColor=#333333;" parent="TOrspAAc8ZJOiZQ5sblr-9" vertex="1">
          <mxGeometry x="280" width="141" height="22" as="geometry">
            <mxRectangle width="141" height="22" as="alternateBounds" />
          </mxGeometry>
        </mxCell>
        <mxCell id="TOrspAAc8ZJOiZQ5sblr-13" value="" style="shape=partialRectangle;html=1;whiteSpace=wrap;connectable=0;strokeColor=#666666;overflow=hidden;fillColor=#f5f5f5;top=0;left=0;bottom=0;right=0;pointerEvents=1;fontSize=16;fontStyle=1;align=left;fontColor=#333333;fontFamily=Times New Roman;" parent="TOrspAAc8ZJOiZQ5sblr-9" vertex="1">
          <mxGeometry x="421" width="139" height="22" as="geometry">
            <mxRectangle width="139" height="22" as="alternateBounds" />
          </mxGeometry>
        </mxCell>
        <mxCell id="TOrspAAc8ZJOiZQ5sblr-14" style="shape=partialRectangle;html=1;whiteSpace=wrap;connectable=0;strokeColor=#666666;overflow=hidden;fillColor=#f5f5f5;top=0;left=0;bottom=0;right=0;pointerEvents=1;fontSize=16;fontStyle=1;align=left;fontColor=#333333;" parent="TOrspAAc8ZJOiZQ5sblr-9" vertex="1">
          <mxGeometry x="560" width="140" height="22" as="geometry">
            <mxRectangle width="140" height="22" as="alternateBounds" />
          </mxGeometry>
        </mxCell>
        <mxCell id="TOrspAAc8ZJOiZQ5sblr-15" style="shape=partialRectangle;html=1;whiteSpace=wrap;connectable=0;strokeColor=#666666;overflow=hidden;fillColor=#f5f5f5;top=0;left=0;bottom=0;right=0;pointerEvents=1;fontSize=16;fontStyle=1;align=left;fontColor=#333333;fontFamily=Times New Roman;" parent="TOrspAAc8ZJOiZQ5sblr-9" vertex="1">
          <mxGeometry x="700" width="140" height="22" as="geometry">
            <mxRectangle width="140" height="22" as="alternateBounds" />
          </mxGeometry>
        </mxCell>
        <mxCell id="TOrspAAc8ZJOiZQ5sblr-16" style="shape=tableRow;horizontal=0;startSize=0;swimlaneHead=0;swimlaneBody=0;strokeColor=inherit;top=0;left=0;bottom=0;right=0;collapsible=0;dropTarget=0;fillColor=none;points=[[0,0.5],[1,0.5]];portConstraint=eastwest;fontSize=16;fontStyle=1;align=center;fontFamily=Times New Roman;" parent="TOrspAAc8ZJOiZQ5sblr-1" vertex="1">
          <mxGeometry y="45" width="840" height="22" as="geometry" />
        </mxCell>
        <mxCell id="TOrspAAc8ZJOiZQ5sblr-17" value="zn_emulator" style="shape=partialRectangle;html=1;whiteSpace=wrap;connectable=0;strokeColor=#005700;overflow=hidden;fillColor=#008a00;top=0;left=0;bottom=0;right=0;pointerEvents=1;fontSize=16;fontStyle=1;align=left;fontColor=#ffffff;fontFamily=Times New Roman;" parent="TOrspAAc8ZJOiZQ5sblr-16" vertex="1">
          <mxGeometry width="140" height="22" as="geometry">
            <mxRectangle width="140" height="22" as="alternateBounds" />
          </mxGeometry>
        </mxCell>
        <mxCell id="TOrspAAc8ZJOiZQ5sblr-18" value="zn_temp_spt_emu" style="shape=partialRectangle;html=1;whiteSpace=wrap;connectable=0;strokeColor=#666666;overflow=hidden;fillColor=#f5f5f5;top=0;left=0;bottom=0;right=0;pointerEvents=1;fontSize=16;fontStyle=1;align=left;fontColor=#333333;fontFamily=Times New Roman;" parent="TOrspAAc8ZJOiZQ5sblr-16" vertex="1">
          <mxGeometry x="140" width="140" height="22" as="geometry">
            <mxRectangle width="140" height="22" as="alternateBounds" />
          </mxGeometry>
        </mxCell>
        <mxCell id="TOrspAAc8ZJOiZQ5sblr-19" value="zn_w_spt_emu" style="shape=partialRectangle;html=1;whiteSpace=wrap;connectable=0;strokeColor=#666666;overflow=hidden;fillColor=#f5f5f5;top=0;left=0;bottom=0;right=0;pointerEvents=1;fontSize=16;fontStyle=1;align=left;fontColor=#333333;fontFamily=Times New Roman;" parent="TOrspAAc8ZJOiZQ5sblr-16" vertex="1">
          <mxGeometry x="280" width="141" height="22" as="geometry">
            <mxRectangle width="141" height="22" as="alternateBounds" />
          </mxGeometry>
        </mxCell>
        <mxCell id="TOrspAAc8ZJOiZQ5sblr-20" value="" style="shape=partialRectangle;html=1;whiteSpace=wrap;connectable=0;strokeColor=#666666;overflow=hidden;fillColor=#f5f5f5;top=0;left=0;bottom=0;right=0;pointerEvents=1;fontSize=16;fontStyle=1;align=left;fontColor=#333333;fontFamily=Times New Roman;" parent="TOrspAAc8ZJOiZQ5sblr-16" vertex="1">
          <mxGeometry x="421" width="139" height="22" as="geometry">
            <mxRectangle width="139" height="22" as="alternateBounds" />
          </mxGeometry>
        </mxCell>
        <mxCell id="TOrspAAc8ZJOiZQ5sblr-21" style="shape=partialRectangle;html=1;whiteSpace=wrap;connectable=0;strokeColor=#666666;overflow=hidden;fillColor=#f5f5f5;top=0;left=0;bottom=0;right=0;pointerEvents=1;fontSize=16;fontStyle=1;align=left;fontColor=#333333;" parent="TOrspAAc8ZJOiZQ5sblr-16" vertex="1">
          <mxGeometry x="560" width="140" height="22" as="geometry">
            <mxRectangle width="140" height="22" as="alternateBounds" />
          </mxGeometry>
        </mxCell>
        <mxCell id="TOrspAAc8ZJOiZQ5sblr-22" style="shape=partialRectangle;html=1;whiteSpace=wrap;connectable=0;strokeColor=#666666;overflow=hidden;fillColor=#f5f5f5;top=0;left=0;bottom=0;right=0;pointerEvents=1;fontSize=16;fontStyle=1;align=left;fontColor=#333333;fontFamily=Times New Roman;" parent="TOrspAAc8ZJOiZQ5sblr-16" vertex="1">
          <mxGeometry x="700" width="140" height="22" as="geometry">
            <mxRectangle width="140" height="22" as="alternateBounds" />
          </mxGeometry>
        </mxCell>
        <mxCell id="TOrspAAc8ZJOiZQ5sblr-23" style="shape=tableRow;horizontal=0;startSize=0;swimlaneHead=0;swimlaneBody=0;strokeColor=inherit;top=0;left=0;bottom=0;right=0;collapsible=0;dropTarget=0;fillColor=none;points=[[0,0.5],[1,0.5]];portConstraint=eastwest;fontSize=16;fontStyle=1;align=center;fontFamily=Times New Roman;" parent="TOrspAAc8ZJOiZQ5sblr-1" vertex="1">
          <mxGeometry y="67" width="840" height="22" as="geometry" />
        </mxCell>
        <mxCell id="TOrspAAc8ZJOiZQ5sblr-24" value="heat_pump" style="shape=partialRectangle;html=1;whiteSpace=wrap;connectable=0;strokeColor=#005700;overflow=hidden;fillColor=#008a00;top=0;left=0;bottom=0;right=0;pointerEvents=1;fontSize=16;fontStyle=1;align=left;fontColor=#ffffff;rowspan=2;colspan=1;fontFamily=Times New Roman;" parent="TOrspAAc8ZJOiZQ5sblr-23" vertex="1">
          <mxGeometry width="140" height="44" as="geometry">
            <mxRectangle width="140" height="22" as="alternateBounds" />
          </mxGeometry>
        </mxCell>
        <mxCell id="TOrspAAc8ZJOiZQ5sblr-25" value="wshp_power" style="shape=partialRectangle;html=1;whiteSpace=wrap;connectable=0;strokeColor=#666666;overflow=hidden;fillColor=#f5f5f5;top=0;left=0;bottom=0;right=0;pointerEvents=1;fontSize=16;fontStyle=1;align=left;fontColor=#333333;fontFamily=Times New Roman;" parent="TOrspAAc8ZJOiZQ5sblr-23" vertex="1">
          <mxGeometry x="140" width="140" height="22" as="geometry">
            <mxRectangle width="140" height="22" as="alternateBounds" />
          </mxGeometry>
        </mxCell>
        <mxCell id="TOrspAAc8ZJOiZQ5sblr-26" value="iw_flow" style="shape=partialRectangle;html=1;whiteSpace=wrap;connectable=0;strokeColor=#666666;overflow=hidden;fillColor=#f5f5f5;top=0;left=0;bottom=0;right=0;pointerEvents=1;fontSize=16;fontStyle=1;align=left;fontColor=#333333;fontFamily=Times New Roman;" parent="TOrspAAc8ZJOiZQ5sblr-23" vertex="1">
          <mxGeometry x="280" width="141" height="22" as="geometry">
            <mxRectangle width="141" height="22" as="alternateBounds" />
          </mxGeometry>
        </mxCell>
        <mxCell id="TOrspAAc8ZJOiZQ5sblr-27" value="sa_flow" style="shape=partialRectangle;html=1;whiteSpace=wrap;connectable=0;strokeColor=#666666;overflow=hidden;fillColor=#f5f5f5;top=0;left=0;bottom=0;right=0;pointerEvents=1;fontSize=16;fontStyle=1;align=left;fontColor=#333333;fontFamily=Times New Roman;" parent="TOrspAAc8ZJOiZQ5sblr-23" vertex="1">
          <mxGeometry x="421" width="139" height="22" as="geometry">
            <mxRectangle width="139" height="22" as="alternateBounds" />
          </mxGeometry>
        </mxCell>
        <mxCell id="TOrspAAc8ZJOiZQ5sblr-28" value="sa_temp" style="shape=partialRectangle;html=1;whiteSpace=wrap;connectable=0;strokeColor=#666666;overflow=hidden;fillColor=#f5f5f5;top=0;left=0;bottom=0;right=0;pointerEvents=1;fontSize=16;fontStyle=1;align=left;fontColor=#333333;fontFamily=Times New Roman;" parent="TOrspAAc8ZJOiZQ5sblr-23" vertex="1">
          <mxGeometry x="560" width="140" height="22" as="geometry">
            <mxRectangle width="140" height="22" as="alternateBounds" />
          </mxGeometry>
        </mxCell>
        <mxCell id="TOrspAAc8ZJOiZQ5sblr-29" value="sa_rh" style="shape=partialRectangle;html=1;whiteSpace=wrap;connectable=0;strokeColor=#666666;overflow=hidden;fillColor=#f5f5f5;top=0;left=0;bottom=0;right=0;pointerEvents=1;fontSize=16;fontStyle=1;align=left;fontColor=#333333;fontFamily=Times New Roman;" parent="TOrspAAc8ZJOiZQ5sblr-23" vertex="1">
          <mxGeometry x="700" width="140" height="22" as="geometry">
            <mxRectangle width="140" height="22" as="alternateBounds" />
          </mxGeometry>
        </mxCell>
        <mxCell id="TOrspAAc8ZJOiZQ5sblr-30" style="shape=tableRow;horizontal=0;startSize=0;swimlaneHead=0;swimlaneBody=0;strokeColor=inherit;top=0;left=0;bottom=0;right=0;collapsible=0;dropTarget=0;fillColor=none;points=[[0,0.5],[1,0.5]];portConstraint=eastwest;fontSize=16;fontStyle=1;align=center;fontFamily=Times New Roman;" parent="TOrspAAc8ZJOiZQ5sblr-1" vertex="1">
          <mxGeometry y="89" width="840" height="22" as="geometry" />
        </mxCell>
        <mxCell id="TOrspAAc8ZJOiZQ5sblr-31" style="shape=partialRectangle;html=1;whiteSpace=wrap;connectable=0;strokeColor=#005700;overflow=hidden;fillColor=#008a00;top=0;left=0;bottom=0;right=0;pointerEvents=1;fontSize=16;fontStyle=1;align=left;fontColor=#ffffff;" parent="TOrspAAc8ZJOiZQ5sblr-30" vertex="1" visible="0">
          <mxGeometry width="140" height="22" as="geometry">
            <mxRectangle width="140" height="22" as="alternateBounds" />
          </mxGeometry>
        </mxCell>
        <mxCell id="TOrspAAc8ZJOiZQ5sblr-32" value="fan_spd" style="shape=partialRectangle;html=1;whiteSpace=wrap;connectable=0;strokeColor=#666666;overflow=hidden;fillColor=#f5f5f5;top=0;left=0;bottom=0;right=0;pointerEvents=1;fontSize=16;fontStyle=1;align=left;fontColor=#333333;fontFamily=Times New Roman;" parent="TOrspAAc8ZJOiZQ5sblr-30" vertex="1">
          <mxGeometry x="140" width="140" height="22" as="geometry">
            <mxRectangle width="140" height="22" as="alternateBounds" />
          </mxGeometry>
        </mxCell>
        <mxCell id="TOrspAAc8ZJOiZQ5sblr-33" value="comp_spd" style="shape=partialRectangle;html=1;whiteSpace=wrap;connectable=0;strokeColor=#666666;overflow=hidden;fillColor=#f5f5f5;top=0;left=0;bottom=0;right=0;pointerEvents=1;fontSize=16;fontStyle=1;align=left;fontColor=#333333;fontFamily=Times New Roman;" parent="TOrspAAc8ZJOiZQ5sblr-30" vertex="1">
          <mxGeometry x="280" width="141" height="22" as="geometry">
            <mxRectangle width="141" height="22" as="alternateBounds" />
          </mxGeometry>
        </mxCell>
        <mxCell id="TOrspAAc8ZJOiZQ5sblr-34" value="stat" style="shape=partialRectangle;html=1;whiteSpace=wrap;connectable=0;strokeColor=#666666;overflow=hidden;fillColor=#f5f5f5;top=0;left=0;bottom=0;right=0;pointerEvents=1;fontSize=16;fontStyle=1;align=left;fontColor=#333333;fontFamily=Times New Roman;" parent="TOrspAAc8ZJOiZQ5sblr-30" vertex="1">
          <mxGeometry x="421" width="139" height="22" as="geometry">
            <mxRectangle width="139" height="22" as="alternateBounds" />
          </mxGeometry>
        </mxCell>
        <mxCell id="TOrspAAc8ZJOiZQ5sblr-35" value="" style="shape=partialRectangle;html=1;whiteSpace=wrap;connectable=0;strokeColor=#666666;overflow=hidden;fillColor=#f5f5f5;top=0;left=0;bottom=0;right=0;pointerEvents=1;fontSize=16;fontStyle=1;align=left;fontColor=#333333;fontFamily=Times New Roman;" parent="TOrspAAc8ZJOiZQ5sblr-30" vertex="1">
          <mxGeometry x="560" width="140" height="22" as="geometry">
            <mxRectangle width="140" height="22" as="alternateBounds" />
          </mxGeometry>
        </mxCell>
        <mxCell id="TOrspAAc8ZJOiZQ5sblr-36" value="" style="shape=partialRectangle;html=1;whiteSpace=wrap;connectable=0;strokeColor=#666666;overflow=hidden;fillColor=#f5f5f5;top=0;left=0;bottom=0;right=0;pointerEvents=1;fontSize=16;fontStyle=1;align=left;fontColor=#333333;fontFamily=Times New Roman;" parent="TOrspAAc8ZJOiZQ5sblr-30" vertex="1">
          <mxGeometry x="700" width="140" height="22" as="geometry">
            <mxRectangle width="140" height="22" as="alternateBounds" />
          </mxGeometry>
        </mxCell>
        <mxCell id="TOrspAAc8ZJOiZQ5sblr-37" style="shape=tableRow;horizontal=0;startSize=0;swimlaneHead=0;swimlaneBody=0;strokeColor=inherit;top=0;left=0;bottom=0;right=0;collapsible=0;dropTarget=0;fillColor=none;points=[[0,0.5],[1,0.5]];portConstraint=eastwest;fontSize=16;fontStyle=1;align=center;fontFamily=Times New Roman;" parent="TOrspAAc8ZJOiZQ5sblr-1" vertex="1">
          <mxGeometry y="111" width="840" height="22" as="geometry" />
        </mxCell>
        <mxCell id="TOrspAAc8ZJOiZQ5sblr-38" value="tstat" style="shape=partialRectangle;html=1;whiteSpace=wrap;connectable=0;strokeColor=#005700;overflow=hidden;fillColor=#008a00;top=0;left=0;bottom=0;right=0;pointerEvents=1;fontSize=16;fontStyle=1;align=left;fontColor=#ffffff;fontFamily=Times New Roman;" parent="TOrspAAc8ZJOiZQ5sblr-37" vertex="1">
          <mxGeometry width="140" height="22" as="geometry">
            <mxRectangle width="140" height="22" as="alternateBounds" />
          </mxGeometry>
        </mxCell>
        <mxCell id="TOrspAAc8ZJOiZQ5sblr-39" value="zn_temp&lt;span style=&quot;background-color: initial; font-size: 16px;&quot;&gt;_cspt&lt;/span&gt;" style="shape=partialRectangle;html=1;whiteSpace=wrap;connectable=0;strokeColor=#666666;overflow=hidden;fillColor=#f5f5f5;top=0;left=0;bottom=0;right=0;pointerEvents=1;fontSize=16;fontStyle=1;align=left;fontColor=#333333;fontFamily=Times New Roman;" parent="TOrspAAc8ZJOiZQ5sblr-37" vertex="1">
          <mxGeometry x="140" width="140" height="22" as="geometry">
            <mxRectangle width="140" height="22" as="alternateBounds" />
          </mxGeometry>
        </mxCell>
        <mxCell id="TOrspAAc8ZJOiZQ5sblr-40" value="zn_temp&lt;span style=&quot;background-color: initial; font-size: 16px;&quot;&gt;_hspt&lt;/span&gt;" style="shape=partialRectangle;html=1;whiteSpace=wrap;connectable=0;strokeColor=#666666;overflow=hidden;fillColor=#f5f5f5;top=0;left=0;bottom=0;right=0;pointerEvents=1;fontSize=16;fontStyle=1;align=left;fontColor=#333333;fontFamily=Times New Roman;" parent="TOrspAAc8ZJOiZQ5sblr-37" vertex="1">
          <mxGeometry x="280" width="141" height="22" as="geometry">
            <mxRectangle width="141" height="22" as="alternateBounds" />
          </mxGeometry>
        </mxCell>
        <mxCell id="TOrspAAc8ZJOiZQ5sblr-41" value="" style="shape=partialRectangle;html=1;whiteSpace=wrap;connectable=0;strokeColor=#666666;overflow=hidden;fillColor=#f5f5f5;top=0;left=0;bottom=0;right=0;pointerEvents=1;fontSize=16;fontStyle=1;align=left;fontColor=#333333;fontFamily=Times New Roman;" parent="TOrspAAc8ZJOiZQ5sblr-37" vertex="1">
          <mxGeometry x="421" width="139" height="22" as="geometry">
            <mxRectangle width="139" height="22" as="alternateBounds" />
          </mxGeometry>
        </mxCell>
        <mxCell id="TOrspAAc8ZJOiZQ5sblr-42" style="shape=partialRectangle;html=1;whiteSpace=wrap;connectable=0;strokeColor=#666666;overflow=hidden;fillColor=#f5f5f5;top=0;left=0;bottom=0;right=0;pointerEvents=1;fontSize=16;fontStyle=1;align=left;fontColor=#333333;fontFamily=Times New Roman;" parent="TOrspAAc8ZJOiZQ5sblr-37" vertex="1">
          <mxGeometry x="560" width="140" height="22" as="geometry">
            <mxRectangle width="140" height="22" as="alternateBounds" />
          </mxGeometry>
        </mxCell>
        <mxCell id="TOrspAAc8ZJOiZQ5sblr-43" style="shape=partialRectangle;html=1;whiteSpace=wrap;connectable=0;strokeColor=#666666;overflow=hidden;fillColor=#f5f5f5;top=0;left=0;bottom=0;right=0;pointerEvents=1;fontSize=16;fontStyle=1;align=left;fontColor=#333333;fontFamily=Times New Roman;" parent="TOrspAAc8ZJOiZQ5sblr-37" vertex="1">
          <mxGeometry x="700" width="140" height="22" as="geometry">
            <mxRectangle width="140" height="22" as="alternateBounds" />
          </mxGeometry>
        </mxCell>
        <mxCell id="TOrspAAc8ZJOiZQ5sblr-44" style="shape=tableRow;horizontal=0;startSize=0;swimlaneHead=0;swimlaneBody=0;strokeColor=inherit;top=0;left=0;bottom=0;right=0;collapsible=0;dropTarget=0;fillColor=none;points=[[0,0.5],[1,0.5]];portConstraint=eastwest;fontSize=16;fontStyle=1;align=center;fontFamily=Times New Roman;" parent="TOrspAAc8ZJOiZQ5sblr-1" vertex="1">
          <mxGeometry y="133" width="840" height="22" as="geometry" />
        </mxCell>
        <mxCell id="TOrspAAc8ZJOiZQ5sblr-45" value="occ##_pheater" style="shape=partialRectangle;html=1;whiteSpace=wrap;connectable=0;strokeColor=#005700;overflow=hidden;fillColor=#008a00;top=0;left=0;bottom=0;right=0;pointerEvents=1;fontSize=16;fontStyle=1;align=left;fontColor=#ffffff;fontFamily=Times New Roman;" parent="TOrspAAc8ZJOiZQ5sblr-44" vertex="1">
          <mxGeometry width="140" height="22" as="geometry">
            <mxRectangle width="140" height="22" as="alternateBounds" />
          </mxGeometry>
        </mxCell>
        <mxCell id="TOrspAAc8ZJOiZQ5sblr-46" value="occ##_ph_power" style="shape=partialRectangle;html=1;whiteSpace=wrap;connectable=0;strokeColor=#666666;overflow=hidden;fillColor=#f5f5f5;top=0;left=0;bottom=0;right=0;pointerEvents=1;fontSize=16;fontStyle=1;align=left;fontColor=#333333;fontFamily=Times New Roman;" parent="TOrspAAc8ZJOiZQ5sblr-44" vertex="1">
          <mxGeometry x="140" width="140" height="22" as="geometry">
            <mxRectangle width="140" height="22" as="alternateBounds" />
          </mxGeometry>
        </mxCell>
        <mxCell id="TOrspAAc8ZJOiZQ5sblr-47" style="shape=partialRectangle;html=1;whiteSpace=wrap;connectable=0;strokeColor=#666666;overflow=hidden;fillColor=#f5f5f5;top=0;left=0;bottom=0;right=0;pointerEvents=1;fontSize=16;fontStyle=1;align=left;fontColor=#333333;fontFamily=Times New Roman;" parent="TOrspAAc8ZJOiZQ5sblr-44" vertex="1">
          <mxGeometry x="280" width="141" height="22" as="geometry">
            <mxRectangle width="141" height="22" as="alternateBounds" />
          </mxGeometry>
        </mxCell>
        <mxCell id="TOrspAAc8ZJOiZQ5sblr-48" style="shape=partialRectangle;html=1;whiteSpace=wrap;connectable=0;strokeColor=#666666;overflow=hidden;fillColor=#f5f5f5;top=0;left=0;bottom=0;right=0;pointerEvents=1;fontSize=16;fontStyle=1;align=left;fontColor=#333333;fontFamily=Times New Roman;" parent="TOrspAAc8ZJOiZQ5sblr-44" vertex="1">
          <mxGeometry x="421" width="139" height="22" as="geometry">
            <mxRectangle width="139" height="22" as="alternateBounds" />
          </mxGeometry>
        </mxCell>
        <mxCell id="TOrspAAc8ZJOiZQ5sblr-49" style="shape=partialRectangle;html=1;whiteSpace=wrap;connectable=0;strokeColor=#666666;overflow=hidden;fillColor=#f5f5f5;top=0;left=0;bottom=0;right=0;pointerEvents=1;fontSize=16;fontStyle=1;align=left;fontColor=#333333;fontFamily=Times New Roman;" parent="TOrspAAc8ZJOiZQ5sblr-44" vertex="1">
          <mxGeometry x="560" width="140" height="22" as="geometry">
            <mxRectangle width="140" height="22" as="alternateBounds" />
          </mxGeometry>
        </mxCell>
        <mxCell id="TOrspAAc8ZJOiZQ5sblr-50" style="shape=partialRectangle;html=1;whiteSpace=wrap;connectable=0;strokeColor=#666666;overflow=hidden;fillColor=#f5f5f5;top=0;left=0;bottom=0;right=0;pointerEvents=1;fontSize=16;fontStyle=1;align=left;fontColor=#333333;fontFamily=Times New Roman;" parent="TOrspAAc8ZJOiZQ5sblr-44" vertex="1">
          <mxGeometry x="700" width="140" height="22" as="geometry">
            <mxRectangle width="140" height="22" as="alternateBounds" />
          </mxGeometry>
        </mxCell>
        <mxCell id="TOrspAAc8ZJOiZQ5sblr-51" style="shape=tableRow;horizontal=0;startSize=0;swimlaneHead=0;swimlaneBody=0;strokeColor=inherit;top=0;left=0;bottom=0;right=0;collapsible=0;dropTarget=0;fillColor=none;points=[[0,0.5],[1,0.5]];portConstraint=eastwest;fontSize=16;fontStyle=1;align=center;fontFamily=Times New Roman;" parent="TOrspAAc8ZJOiZQ5sblr-1" vertex="1">
          <mxGeometry y="155" width="840" height="22" as="geometry" />
        </mxCell>
        <mxCell id="TOrspAAc8ZJOiZQ5sblr-52" value="occ##_pfan" style="shape=partialRectangle;html=1;whiteSpace=wrap;connectable=0;strokeColor=#005700;overflow=hidden;fillColor=#008a00;top=0;left=0;bottom=0;right=0;pointerEvents=1;fontSize=16;fontStyle=1;align=left;fontColor=#ffffff;fontFamily=Times New Roman;" parent="TOrspAAc8ZJOiZQ5sblr-51" vertex="1">
          <mxGeometry width="140" height="22" as="geometry">
            <mxRectangle width="140" height="22" as="alternateBounds" />
          </mxGeometry>
        </mxCell>
        <mxCell id="TOrspAAc8ZJOiZQ5sblr-53" value="occ##_pf_power" style="shape=partialRectangle;html=1;whiteSpace=wrap;connectable=0;strokeColor=#666666;overflow=hidden;fillColor=#f5f5f5;top=0;left=0;bottom=0;right=0;pointerEvents=1;fontSize=16;fontStyle=1;align=left;fontColor=#333333;fontFamily=Times New Roman;" parent="TOrspAAc8ZJOiZQ5sblr-51" vertex="1">
          <mxGeometry x="140" width="140" height="22" as="geometry">
            <mxRectangle width="140" height="22" as="alternateBounds" />
          </mxGeometry>
        </mxCell>
        <mxCell id="TOrspAAc8ZJOiZQ5sblr-54" value="" style="shape=partialRectangle;html=1;whiteSpace=wrap;connectable=0;strokeColor=#666666;overflow=hidden;fillColor=#f5f5f5;top=0;left=0;bottom=0;right=0;pointerEvents=1;fontSize=16;fontStyle=1;align=left;fontColor=#333333;fontFamily=Times New Roman;" parent="TOrspAAc8ZJOiZQ5sblr-51" vertex="1">
          <mxGeometry x="280" width="141" height="22" as="geometry">
            <mxRectangle width="141" height="22" as="alternateBounds" />
          </mxGeometry>
        </mxCell>
        <mxCell id="TOrspAAc8ZJOiZQ5sblr-55" style="shape=partialRectangle;html=1;whiteSpace=wrap;connectable=0;strokeColor=#666666;overflow=hidden;fillColor=#f5f5f5;top=0;left=0;bottom=0;right=0;pointerEvents=1;fontSize=16;fontStyle=1;align=left;fontColor=#333333;fontFamily=Times New Roman;" parent="TOrspAAc8ZJOiZQ5sblr-51" vertex="1">
          <mxGeometry x="421" width="139" height="22" as="geometry">
            <mxRectangle width="139" height="22" as="alternateBounds" />
          </mxGeometry>
        </mxCell>
        <mxCell id="TOrspAAc8ZJOiZQ5sblr-56" style="shape=partialRectangle;html=1;whiteSpace=wrap;connectable=0;strokeColor=#666666;overflow=hidden;fillColor=#f5f5f5;top=0;left=0;bottom=0;right=0;pointerEvents=1;fontSize=16;fontStyle=1;align=left;fontColor=#333333;fontFamily=Times New Roman;" parent="TOrspAAc8ZJOiZQ5sblr-51" vertex="1">
          <mxGeometry x="560" width="140" height="22" as="geometry">
            <mxRectangle width="140" height="22" as="alternateBounds" />
          </mxGeometry>
        </mxCell>
        <mxCell id="TOrspAAc8ZJOiZQ5sblr-57" style="shape=partialRectangle;html=1;whiteSpace=wrap;connectable=0;strokeColor=#666666;overflow=hidden;fillColor=#f5f5f5;top=0;left=0;bottom=0;right=0;pointerEvents=1;fontSize=16;fontStyle=1;align=left;fontColor=#333333;fontFamily=Times New Roman;" parent="TOrspAAc8ZJOiZQ5sblr-51" vertex="1">
          <mxGeometry x="700" width="140" height="22" as="geometry">
            <mxRectangle width="140" height="22" as="alternateBounds" />
          </mxGeometry>
        </mxCell>
        <mxCell id="R7LtV6PrhuX81kSBJG-D-1" style="shape=tableRow;horizontal=0;startSize=0;swimlaneHead=0;swimlaneBody=0;strokeColor=inherit;top=0;left=0;bottom=0;right=0;collapsible=0;dropTarget=0;fillColor=none;points=[[0,0.5],[1,0.5]];portConstraint=eastwest;fontSize=16;fontStyle=1;align=center;fontFamily=Times New Roman;" parent="TOrspAAc8ZJOiZQ5sblr-1" vertex="1">
          <mxGeometry y="177" width="840" height="22" as="geometry" />
        </mxCell>
        <mxCell id="R7LtV6PrhuX81kSBJG-D-2" value="ground_hx_sim" style="shape=partialRectangle;html=1;whiteSpace=wrap;connectable=0;strokeColor=#005700;overflow=hidden;fillColor=#008a00;top=0;left=0;bottom=0;right=0;pointerEvents=1;fontSize=16;fontStyle=1;align=left;fontColor=#ffffff;fontFamily=Times New Roman;" parent="R7LtV6PrhuX81kSBJG-D-1" vertex="1">
          <mxGeometry width="140" height="22" as="geometry">
            <mxRectangle width="140" height="22" as="alternateBounds" />
          </mxGeometry>
        </mxCell>
        <mxCell id="R7LtV6PrhuX81kSBJG-D-3" value="utube_up_temp" style="shape=partialRectangle;html=1;whiteSpace=wrap;connectable=0;strokeColor=#666666;overflow=hidden;fillColor=#f5f5f5;top=0;left=0;bottom=0;right=0;pointerEvents=1;fontSize=16;fontStyle=1;align=left;fontColor=#333333;fontFamily=Times New Roman;" parent="R7LtV6PrhuX81kSBJG-D-1" vertex="1">
          <mxGeometry x="140" width="140" height="22" as="geometry">
            <mxRectangle width="140" height="22" as="alternateBounds" />
          </mxGeometry>
        </mxCell>
        <mxCell id="R7LtV6PrhuX81kSBJG-D-4" value="utube_down_temp" style="shape=partialRectangle;html=1;whiteSpace=wrap;connectable=0;strokeColor=#666666;overflow=hidden;fillColor=#f5f5f5;top=0;left=0;bottom=0;right=0;pointerEvents=1;fontSize=16;fontStyle=1;align=left;fontColor=#333333;fontFamily=Times New Roman;" parent="R7LtV6PrhuX81kSBJG-D-1" vertex="1">
          <mxGeometry x="280" width="141" height="22" as="geometry">
            <mxRectangle width="141" height="22" as="alternateBounds" />
          </mxGeometry>
        </mxCell>
        <mxCell id="R7LtV6PrhuX81kSBJG-D-5" value="grout_up_temp" style="shape=partialRectangle;html=1;whiteSpace=wrap;connectable=0;strokeColor=#666666;overflow=hidden;fillColor=#f5f5f5;top=0;left=0;bottom=0;right=0;pointerEvents=1;fontSize=16;fontStyle=1;align=left;fontColor=#333333;fontFamily=Times New Roman;" parent="R7LtV6PrhuX81kSBJG-D-1" vertex="1">
          <mxGeometry x="421" width="139" height="22" as="geometry">
            <mxRectangle width="139" height="22" as="alternateBounds" />
          </mxGeometry>
        </mxCell>
        <mxCell id="R7LtV6PrhuX81kSBJG-D-6" value="grout_down_temp" style="shape=partialRectangle;html=1;whiteSpace=wrap;connectable=0;strokeColor=#666666;overflow=hidden;fillColor=#f5f5f5;top=0;left=0;bottom=0;right=0;pointerEvents=1;fontSize=16;fontStyle=1;align=left;fontColor=#333333;fontFamily=Times New Roman;" parent="R7LtV6PrhuX81kSBJG-D-1" vertex="1">
          <mxGeometry x="560" width="140" height="22" as="geometry">
            <mxRectangle width="140" height="22" as="alternateBounds" />
          </mxGeometry>
        </mxCell>
        <mxCell id="R7LtV6PrhuX81kSBJG-D-7" style="shape=partialRectangle;html=1;whiteSpace=wrap;connectable=0;strokeColor=#666666;overflow=hidden;fillColor=#f5f5f5;top=0;left=0;bottom=0;right=0;pointerEvents=1;fontSize=16;fontStyle=1;align=left;fontColor=#333333;fontFamily=Times New Roman;" parent="R7LtV6PrhuX81kSBJG-D-1" vertex="1">
          <mxGeometry x="700" width="140" height="22" as="geometry">
            <mxRectangle width="140" height="22" as="alternateBounds" />
          </mxGeometry>
        </mxCell>
        <mxCell id="TOrspAAc8ZJOiZQ5sblr-65" style="shape=tableRow;horizontal=0;startSize=0;swimlaneHead=0;swimlaneBody=0;strokeColor=inherit;top=0;left=0;bottom=0;right=0;collapsible=0;dropTarget=0;fillColor=none;points=[[0,0.5],[1,0.5]];portConstraint=eastwest;fontSize=16;fontStyle=1;align=center;fontFamily=Times New Roman;" parent="TOrspAAc8ZJOiZQ5sblr-1" vertex="1">
          <mxGeometry y="199" width="840" height="22" as="geometry" />
        </mxCell>
        <mxCell id="TOrspAAc8ZJOiZQ5sblr-66" value="zn_emu" style="shape=partialRectangle;html=1;whiteSpace=wrap;connectable=0;strokeColor=#6F0000;overflow=hidden;fillColor=#a20025;top=0;left=0;bottom=0;right=0;pointerEvents=1;fontSize=16;fontStyle=1;align=left;fontColor=#ffffff;fontFamily=Times New Roman;" parent="TOrspAAc8ZJOiZQ5sblr-65" vertex="1">
          <mxGeometry width="140" height="22" as="geometry">
            <mxRectangle width="140" height="22" as="alternateBounds" />
          </mxGeometry>
        </mxCell>
        <mxCell id="TOrspAAc8ZJOiZQ5sblr-67" value="zn_temp" style="shape=partialRectangle;html=1;whiteSpace=wrap;connectable=0;strokeColor=#666666;overflow=hidden;fillColor=#f5f5f5;top=0;left=0;bottom=0;right=0;pointerEvents=1;fontSize=16;fontStyle=1;align=left;fontColor=#333333;fontFamily=Times New Roman;" parent="TOrspAAc8ZJOiZQ5sblr-65" vertex="1">
          <mxGeometry x="140" width="140" height="22" as="geometry">
            <mxRectangle width="140" height="22" as="alternateBounds" />
          </mxGeometry>
        </mxCell>
        <mxCell id="TOrspAAc8ZJOiZQ5sblr-68" value="zn_rh" style="shape=partialRectangle;html=1;whiteSpace=wrap;connectable=0;strokeColor=#666666;overflow=hidden;fillColor=#f5f5f5;top=0;left=0;bottom=0;right=0;pointerEvents=1;fontSize=16;fontStyle=1;align=left;fontColor=#333333;fontFamily=Times New Roman;" parent="TOrspAAc8ZJOiZQ5sblr-65" vertex="1">
          <mxGeometry x="280" width="141" height="22" as="geometry">
            <mxRectangle width="141" height="22" as="alternateBounds" />
          </mxGeometry>
        </mxCell>
        <mxCell id="TOrspAAc8ZJOiZQ5sblr-69" value="" style="shape=partialRectangle;html=1;whiteSpace=wrap;connectable=0;strokeColor=#666666;overflow=hidden;fillColor=#f5f5f5;top=0;left=0;bottom=0;right=0;pointerEvents=1;fontSize=16;fontStyle=1;align=left;fontColor=#333333;fontFamily=Times New Roman;" parent="TOrspAAc8ZJOiZQ5sblr-65" vertex="1">
          <mxGeometry x="421" width="139" height="22" as="geometry">
            <mxRectangle width="139" height="22" as="alternateBounds" />
          </mxGeometry>
        </mxCell>
        <mxCell id="TOrspAAc8ZJOiZQ5sblr-70" style="shape=partialRectangle;html=1;whiteSpace=wrap;connectable=0;strokeColor=#666666;overflow=hidden;fillColor=#f5f5f5;top=0;left=0;bottom=0;right=0;pointerEvents=1;fontSize=16;fontStyle=1;align=left;fontColor=#333333;fontFamily=Times New Roman;" parent="TOrspAAc8ZJOiZQ5sblr-65" vertex="1">
          <mxGeometry x="560" width="140" height="22" as="geometry">
            <mxRectangle width="140" height="22" as="alternateBounds" />
          </mxGeometry>
        </mxCell>
        <mxCell id="TOrspAAc8ZJOiZQ5sblr-71" style="shape=partialRectangle;html=1;whiteSpace=wrap;connectable=0;strokeColor=#666666;overflow=hidden;fillColor=#f5f5f5;top=0;left=0;bottom=0;right=0;pointerEvents=1;fontSize=16;fontStyle=1;align=left;fontColor=#333333;fontFamily=Times New Roman;" parent="TOrspAAc8ZJOiZQ5sblr-65" vertex="1">
          <mxGeometry x="700" width="140" height="22" as="geometry">
            <mxRectangle width="140" height="22" as="alternateBounds" />
          </mxGeometry>
        </mxCell>
        <mxCell id="TOrspAAc8ZJOiZQ5sblr-72" style="shape=tableRow;horizontal=0;startSize=0;swimlaneHead=0;swimlaneBody=0;strokeColor=inherit;top=0;left=0;bottom=0;right=0;collapsible=0;dropTarget=0;fillColor=none;points=[[0,0.5],[1,0.5]];portConstraint=eastwest;fontSize=16;fontStyle=1;align=center;fontFamily=Times New Roman;" parent="TOrspAAc8ZJOiZQ5sblr-1" vertex="1">
          <mxGeometry y="221" width="840" height="22" as="geometry" />
        </mxCell>
        <mxCell id="TOrspAAc8ZJOiZQ5sblr-73" value="out_sim" style="shape=partialRectangle;html=1;whiteSpace=wrap;connectable=0;strokeColor=#6F0000;overflow=hidden;fillColor=#a20025;top=0;left=0;bottom=0;right=0;pointerEvents=1;fontSize=16;fontStyle=1;align=left;fontColor=#ffffff;fontFamily=Times New Roman;" parent="TOrspAAc8ZJOiZQ5sblr-72" vertex="1">
          <mxGeometry width="140" height="22" as="geometry">
            <mxRectangle width="140" height="22" as="alternateBounds" />
          </mxGeometry>
        </mxCell>
        <mxCell id="TOrspAAc8ZJOiZQ5sblr-74" value="oa_temp_sim" style="shape=partialRectangle;html=1;whiteSpace=wrap;connectable=0;strokeColor=#666666;overflow=hidden;fillColor=#f5f5f5;top=0;left=0;bottom=0;right=0;pointerEvents=1;fontSize=16;fontStyle=1;align=left;fontColor=#333333;fontFamily=Times New Roman;" parent="TOrspAAc8ZJOiZQ5sblr-72" vertex="1">
          <mxGeometry x="140" width="140" height="22" as="geometry">
            <mxRectangle width="140" height="22" as="alternateBounds" />
          </mxGeometry>
        </mxCell>
        <mxCell id="TOrspAAc8ZJOiZQ5sblr-75" value="oa_w_sim" style="shape=partialRectangle;html=1;whiteSpace=wrap;connectable=0;strokeColor=#666666;overflow=hidden;fillColor=#f5f5f5;top=0;left=0;bottom=0;right=0;pointerEvents=1;fontSize=16;fontStyle=1;align=left;fontColor=#333333;fontFamily=Times New Roman;" parent="TOrspAAc8ZJOiZQ5sblr-72" vertex="1">
          <mxGeometry x="280" width="141" height="22" as="geometry">
            <mxRectangle width="141" height="22" as="alternateBounds" />
          </mxGeometry>
        </mxCell>
        <mxCell id="TOrspAAc8ZJOiZQ5sblr-76" value="ground_temp_sim" style="shape=partialRectangle;html=1;whiteSpace=wrap;connectable=0;strokeColor=#666666;overflow=hidden;fillColor=#f5f5f5;top=0;left=0;bottom=0;right=0;pointerEvents=1;fontSize=16;fontStyle=1;align=left;fontColor=#333333;fontFamily=Times New Roman;" parent="TOrspAAc8ZJOiZQ5sblr-72" vertex="1">
          <mxGeometry x="421" width="139" height="22" as="geometry">
            <mxRectangle width="139" height="22" as="alternateBounds" />
          </mxGeometry>
        </mxCell>
        <mxCell id="TOrspAAc8ZJOiZQ5sblr-77" value="" style="shape=partialRectangle;html=1;whiteSpace=wrap;connectable=0;strokeColor=#666666;overflow=hidden;fillColor=#f5f5f5;top=0;left=0;bottom=0;right=0;pointerEvents=1;fontSize=16;fontStyle=1;align=left;fontColor=#333333;fontFamily=Times New Roman;" parent="TOrspAAc8ZJOiZQ5sblr-72" vertex="1">
          <mxGeometry x="560" width="140" height="22" as="geometry">
            <mxRectangle width="140" height="22" as="alternateBounds" />
          </mxGeometry>
        </mxCell>
        <mxCell id="TOrspAAc8ZJOiZQ5sblr-78" style="shape=partialRectangle;html=1;whiteSpace=wrap;connectable=0;strokeColor=#666666;overflow=hidden;fillColor=#f5f5f5;top=0;left=0;bottom=0;right=0;pointerEvents=1;fontSize=16;fontStyle=1;align=left;fontColor=#333333;fontFamily=Times New Roman;" parent="TOrspAAc8ZJOiZQ5sblr-72" vertex="1">
          <mxGeometry x="700" width="140" height="22" as="geometry">
            <mxRectangle width="140" height="22" as="alternateBounds" />
          </mxGeometry>
        </mxCell>
        <mxCell id="TOrspAAc8ZJOiZQ5sblr-79" style="shape=tableRow;horizontal=0;startSize=0;swimlaneHead=0;swimlaneBody=0;strokeColor=inherit;top=0;left=0;bottom=0;right=0;collapsible=0;dropTarget=0;fillColor=none;points=[[0,0.5],[1,0.5]];portConstraint=eastwest;fontSize=16;fontStyle=1;align=center;fontFamily=Times New Roman;" parent="TOrspAAc8ZJOiZQ5sblr-1" vertex="1">
          <mxGeometry y="243" width="840" height="22" as="geometry" />
        </mxCell>
        <mxCell id="TOrspAAc8ZJOiZQ5sblr-80" value="zn_sim" style="shape=partialRectangle;html=1;whiteSpace=wrap;connectable=0;strokeColor=#6F0000;overflow=hidden;fillColor=#a20025;top=0;left=0;bottom=0;right=0;pointerEvents=1;fontSize=16;fontStyle=1;align=left;fontColor=#ffffff;fontFamily=Times New Roman;" parent="TOrspAAc8ZJOiZQ5sblr-79" vertex="1">
          <mxGeometry width="140" height="22" as="geometry">
            <mxRectangle width="140" height="22" as="alternateBounds" />
          </mxGeometry>
        </mxCell>
        <mxCell id="TOrspAAc8ZJOiZQ5sblr-81" value="zn_temp_sim" style="shape=partialRectangle;html=1;whiteSpace=wrap;connectable=0;strokeColor=#666666;overflow=hidden;fillColor=#f5f5f5;top=0;left=0;bottom=0;right=0;pointerEvents=1;fontSize=16;fontStyle=1;align=left;fontColor=#333333;fontFamily=Times New Roman;" parent="TOrspAAc8ZJOiZQ5sblr-79" vertex="1">
          <mxGeometry x="140" width="140" height="22" as="geometry">
            <mxRectangle width="140" height="22" as="alternateBounds" />
          </mxGeometry>
        </mxCell>
        <mxCell id="TOrspAAc8ZJOiZQ5sblr-82" value="zn_w_sim" style="shape=partialRectangle;html=1;whiteSpace=wrap;connectable=0;strokeColor=#666666;overflow=hidden;fillColor=#f5f5f5;top=0;left=0;bottom=0;right=0;pointerEvents=1;fontSize=16;fontStyle=1;align=left;fontColor=#333333;fontFamily=Times New Roman;" parent="TOrspAAc8ZJOiZQ5sblr-79" vertex="1">
          <mxGeometry x="280" width="141" height="22" as="geometry">
            <mxRectangle width="141" height="22" as="alternateBounds" />
          </mxGeometry>
        </mxCell>
        <mxCell id="TOrspAAc8ZJOiZQ5sblr-83" style="shape=partialRectangle;html=1;whiteSpace=wrap;connectable=0;strokeColor=#666666;overflow=hidden;fillColor=#f5f5f5;top=0;left=0;bottom=0;right=0;pointerEvents=1;fontSize=16;fontStyle=1;align=left;fontColor=#333333;fontFamily=Times New Roman;" parent="TOrspAAc8ZJOiZQ5sblr-79" vertex="1">
          <mxGeometry x="421" width="139" height="22" as="geometry">
            <mxRectangle width="139" height="22" as="alternateBounds" />
          </mxGeometry>
        </mxCell>
        <mxCell id="TOrspAAc8ZJOiZQ5sblr-84" style="shape=partialRectangle;html=1;whiteSpace=wrap;connectable=0;strokeColor=#666666;overflow=hidden;fillColor=#f5f5f5;top=0;left=0;bottom=0;right=0;pointerEvents=1;fontSize=16;fontStyle=1;align=left;fontColor=#333333;fontFamily=Times New Roman;" parent="TOrspAAc8ZJOiZQ5sblr-79" vertex="1">
          <mxGeometry x="560" width="140" height="22" as="geometry">
            <mxRectangle width="140" height="22" as="alternateBounds" />
          </mxGeometry>
        </mxCell>
        <mxCell id="TOrspAAc8ZJOiZQ5sblr-85" style="shape=partialRectangle;html=1;whiteSpace=wrap;connectable=0;strokeColor=#666666;overflow=hidden;fillColor=#f5f5f5;top=0;left=0;bottom=0;right=0;pointerEvents=1;fontSize=16;fontStyle=1;align=left;fontColor=#333333;fontFamily=Times New Roman;" parent="TOrspAAc8ZJOiZQ5sblr-79" vertex="1">
          <mxGeometry x="700" width="140" height="22" as="geometry">
            <mxRectangle width="140" height="22" as="alternateBounds" />
          </mxGeometry>
        </mxCell>
        <mxCell id="TOrspAAc8ZJOiZQ5sblr-86" style="shape=tableRow;horizontal=0;startSize=0;swimlaneHead=0;swimlaneBody=0;strokeColor=inherit;top=0;left=0;bottom=0;right=0;collapsible=0;dropTarget=0;fillColor=none;points=[[0,0.5],[1,0.5]];portConstraint=eastwest;fontSize=16;fontStyle=1;align=center;fontFamily=Times New Roman;" parent="TOrspAAc8ZJOiZQ5sblr-1" vertex="1">
          <mxGeometry y="265" width="840" height="22" as="geometry" />
        </mxCell>
        <mxCell id="TOrspAAc8ZJOiZQ5sblr-87" value="occ##" style="shape=partialRectangle;html=1;whiteSpace=wrap;connectable=0;strokeColor=#006EAF;overflow=hidden;fillColor=#1ba1e2;top=0;left=0;bottom=0;right=0;pointerEvents=1;fontSize=16;fontStyle=1;align=left;fontColor=#ffffff;rowspan=2;colspan=1;fontFamily=Times New Roman;" parent="TOrspAAc8ZJOiZQ5sblr-86" vertex="1">
          <mxGeometry width="140" height="44" as="geometry">
            <mxRectangle width="140" height="22" as="alternateBounds" />
          </mxGeometry>
        </mxCell>
        <mxCell id="TOrspAAc8ZJOiZQ5sblr-88" value="occ#_pres" style="shape=partialRectangle;html=1;whiteSpace=wrap;connectable=0;strokeColor=#666666;overflow=hidden;fillColor=#f5f5f5;top=0;left=0;bottom=0;right=0;pointerEvents=1;fontSize=16;fontStyle=1;align=left;fontColor=#333333;fontFamily=Times New Roman;" parent="TOrspAAc8ZJOiZQ5sblr-86" vertex="1">
          <mxGeometry x="140" width="140" height="22" as="geometry">
            <mxRectangle width="140" height="22" as="alternateBounds" />
          </mxGeometry>
        </mxCell>
        <mxCell id="TOrspAAc8ZJOiZQ5sblr-89" value="&lt;font style=&quot;font-size: 16px;&quot;&gt;occ##_spt&lt;/font&gt;" style="shape=partialRectangle;html=1;whiteSpace=wrap;connectable=0;strokeColor=#666666;overflow=hidden;fillColor=#f5f5f5;top=0;left=0;bottom=0;right=0;pointerEvents=1;fontSize=16;fontStyle=1;align=left;fontColor=#333333;fontFamily=Times New Roman;" parent="TOrspAAc8ZJOiZQ5sblr-86" vertex="1">
          <mxGeometry x="280" width="141" height="22" as="geometry">
            <mxRectangle width="141" height="22" as="alternateBounds" />
          </mxGeometry>
        </mxCell>
        <mxCell id="TOrspAAc8ZJOiZQ5sblr-90" value="&lt;span style=&quot;font-size: 16px;&quot;&gt;occ##_ph&lt;/span&gt;" style="shape=partialRectangle;html=1;whiteSpace=wrap;connectable=0;strokeColor=#666666;overflow=hidden;fillColor=#f5f5f5;top=0;left=0;bottom=0;right=0;pointerEvents=1;fontSize=16;fontStyle=1;align=left;fontColor=#333333;fontFamily=Times New Roman;" parent="TOrspAAc8ZJOiZQ5sblr-86" vertex="1">
          <mxGeometry x="421" width="139" height="22" as="geometry">
            <mxRectangle width="139" height="22" as="alternateBounds" />
          </mxGeometry>
        </mxCell>
        <mxCell id="TOrspAAc8ZJOiZQ5sblr-91" value="&lt;span style=&quot;font-size: 16px;&quot;&gt;occ##_pf&lt;/span&gt;" style="shape=partialRectangle;html=1;whiteSpace=wrap;connectable=0;strokeColor=#666666;overflow=hidden;fillColor=#f5f5f5;top=0;left=0;bottom=0;right=0;pointerEvents=1;fontSize=16;fontStyle=1;align=left;fontColor=#333333;fontFamily=Times New Roman;" parent="TOrspAAc8ZJOiZQ5sblr-86" vertex="1">
          <mxGeometry x="560" width="140" height="22" as="geometry">
            <mxRectangle width="140" height="22" as="alternateBounds" />
          </mxGeometry>
        </mxCell>
        <mxCell id="TOrspAAc8ZJOiZQ5sblr-92" value="&lt;span style=&quot;font-size: 16px;&quot;&gt;occ##_drink&lt;/span&gt;" style="shape=partialRectangle;html=1;whiteSpace=wrap;connectable=0;strokeColor=#666666;overflow=hidden;fillColor=#f5f5f5;top=0;left=0;bottom=0;right=0;pointerEvents=1;fontSize=16;fontStyle=1;align=left;fontColor=#333333;fontFamily=Times New Roman;" parent="TOrspAAc8ZJOiZQ5sblr-86" vertex="1">
          <mxGeometry x="700" width="140" height="22" as="geometry">
            <mxRectangle width="140" height="22" as="alternateBounds" />
          </mxGeometry>
        </mxCell>
        <mxCell id="TOrspAAc8ZJOiZQ5sblr-93" style="shape=tableRow;horizontal=0;startSize=0;swimlaneHead=0;swimlaneBody=0;strokeColor=inherit;top=0;left=0;bottom=0;right=0;collapsible=0;dropTarget=0;fillColor=none;points=[[0,0.5],[1,0.5]];portConstraint=eastwest;fontSize=16;fontStyle=1;align=center;fontFamily=Times New Roman;" parent="TOrspAAc8ZJOiZQ5sblr-1" vertex="1">
          <mxGeometry y="287" width="840" height="22" as="geometry" />
        </mxCell>
        <mxCell id="TOrspAAc8ZJOiZQ5sblr-94" style="shape=partialRectangle;html=1;whiteSpace=wrap;connectable=0;strokeColor=#006EAF;overflow=hidden;fillColor=#1ba1e2;top=0;left=0;bottom=0;right=0;pointerEvents=1;fontSize=16;fontStyle=1;align=left;fontColor=#ffffff;" parent="TOrspAAc8ZJOiZQ5sblr-93" vertex="1" visible="0">
          <mxGeometry width="140" height="22" as="geometry">
            <mxRectangle width="140" height="22" as="alternateBounds" />
          </mxGeometry>
        </mxCell>
        <mxCell id="TOrspAAc8ZJOiZQ5sblr-95" value="&lt;span style=&quot;font-size: 16px;&quot;&gt;occ##_clo&lt;/span&gt;" style="shape=partialRectangle;html=1;whiteSpace=wrap;connectable=0;strokeColor=#666666;overflow=hidden;fillColor=#f5f5f5;top=0;left=0;bottom=0;right=0;pointerEvents=1;fontSize=16;fontStyle=1;align=left;fontColor=#333333;fontFamily=Times New Roman;" parent="TOrspAAc8ZJOiZQ5sblr-93" vertex="1">
          <mxGeometry x="140" width="140" height="22" as="geometry">
            <mxRectangle width="140" height="22" as="alternateBounds" />
          </mxGeometry>
        </mxCell>
        <mxCell id="TOrspAAc8ZJOiZQ5sblr-96" value="&lt;span style=&quot;font-size: 16px;&quot;&gt;occ##_act&lt;/span&gt;" style="shape=partialRectangle;html=1;whiteSpace=wrap;connectable=0;strokeColor=#666666;overflow=hidden;fillColor=#f5f5f5;top=0;left=0;bottom=0;right=0;pointerEvents=1;fontSize=16;fontStyle=1;align=left;fontColor=#333333;fontFamily=Times New Roman;" parent="TOrspAAc8ZJOiZQ5sblr-93" vertex="1">
          <mxGeometry x="280" width="141" height="22" as="geometry">
            <mxRectangle width="141" height="22" as="alternateBounds" />
          </mxGeometry>
        </mxCell>
        <mxCell id="TOrspAAc8ZJOiZQ5sblr-97" value="&lt;span style=&quot;font-size: 16px;&quot;&gt;occ##_sensation&lt;/span&gt;" style="shape=partialRectangle;html=1;whiteSpace=wrap;connectable=0;strokeColor=#666666;overflow=hidden;fillColor=#f5f5f5;top=0;left=0;bottom=0;right=0;pointerEvents=1;fontSize=16;fontStyle=1;align=left;fontColor=#333333;fontFamily=Times New Roman;" parent="TOrspAAc8ZJOiZQ5sblr-93" vertex="1">
          <mxGeometry x="421" width="139" height="22" as="geometry">
            <mxRectangle width="139" height="22" as="alternateBounds" />
          </mxGeometry>
        </mxCell>
        <mxCell id="TOrspAAc8ZJOiZQ5sblr-98" value="&lt;span style=&quot;font-size: 16px;&quot;&gt;occ##_comfort&lt;/span&gt;" style="shape=partialRectangle;html=1;whiteSpace=wrap;connectable=0;strokeColor=#666666;overflow=hidden;fillColor=#f5f5f5;top=0;left=0;bottom=0;right=0;pointerEvents=1;fontSize=16;fontStyle=1;align=left;fontColor=#333333;fontFamily=Times New Roman;" parent="TOrspAAc8ZJOiZQ5sblr-93" vertex="1">
          <mxGeometry x="560" width="140" height="22" as="geometry">
            <mxRectangle width="140" height="22" as="alternateBounds" />
          </mxGeometry>
        </mxCell>
        <mxCell id="TOrspAAc8ZJOiZQ5sblr-99" value="&lt;span style=&quot;font-size: 16px;&quot;&gt;occ##_met&lt;/span&gt;" style="shape=partialRectangle;html=1;whiteSpace=wrap;connectable=0;strokeColor=#666666;overflow=hidden;fillColor=#f5f5f5;top=0;left=0;bottom=0;right=0;pointerEvents=1;fontSize=16;fontStyle=1;align=left;fontColor=#333333;fontFamily=Times New Roman;" parent="TOrspAAc8ZJOiZQ5sblr-93" vertex="1">
          <mxGeometry x="700" width="140" height="22" as="geometry">
            <mxRectangle width="140" height="22" as="alternateBounds" />
          </mxGeometry>
        </mxCell>
      </root>
    </mxGraphModel>
  </diagram>
  <diagram id="Cg3MvX7JRGKyhx3yUTAF" name="WSHP">
    <mxGraphModel dx="581" dy="252" grid="1" gridSize="10" guides="1" tooltips="1" connect="1" arrows="1" fold="1" page="1" pageScale="1" pageWidth="850" pageHeight="1100" math="0" shadow="0">
      <root>
        <mxCell id="0" />
        <mxCell id="1" parent="0" />
        <mxCell id="vJQQQdvsTkejOWzmckTQ-1" value="" style="endArrow=none;html=1;rounded=0;align=center;fontFamily=Times New Roman;fontStyle=1" edge="1" parent="1">
          <mxGeometry width="50" height="50" relative="1" as="geometry">
            <mxPoint x="280" y="336.51" as="sourcePoint" />
            <mxPoint x="600" y="336.51" as="targetPoint" />
          </mxGeometry>
        </mxCell>
        <mxCell id="vJQQQdvsTkejOWzmckTQ-2" value="" style="endArrow=none;html=1;rounded=0;align=center;fontFamily=Times New Roman;fontStyle=1" edge="1" parent="1">
          <mxGeometry width="50" height="50" relative="1" as="geometry">
            <mxPoint x="320" y="376.51" as="sourcePoint" />
            <mxPoint x="560" y="376.51" as="targetPoint" />
          </mxGeometry>
        </mxCell>
        <mxCell id="vJQQQdvsTkejOWzmckTQ-3" value="" style="endArrow=none;html=1;rounded=0;align=center;fontFamily=Times New Roman;fontStyle=1" edge="1" parent="1">
          <mxGeometry width="50" height="50" relative="1" as="geometry">
            <mxPoint x="560" y="496.51" as="sourcePoint" />
            <mxPoint x="560" y="376.51" as="targetPoint" />
          </mxGeometry>
        </mxCell>
        <mxCell id="vJQQQdvsTkejOWzmckTQ-4" value="" style="endArrow=none;html=1;rounded=0;align=center;fontFamily=Times New Roman;fontStyle=1" edge="1" parent="1">
          <mxGeometry width="50" height="50" relative="1" as="geometry">
            <mxPoint x="600" y="536.51" as="sourcePoint" />
            <mxPoint x="600" y="336.51" as="targetPoint" />
          </mxGeometry>
        </mxCell>
        <mxCell id="vJQQQdvsTkejOWzmckTQ-5" value="" style="endArrow=none;html=1;rounded=0;align=center;fontFamily=Times New Roman;fontStyle=1" edge="1" parent="1">
          <mxGeometry width="50" height="50" relative="1" as="geometry">
            <mxPoint x="280" y="536.51" as="sourcePoint" />
            <mxPoint x="600" y="536.51" as="targetPoint" />
          </mxGeometry>
        </mxCell>
        <mxCell id="vJQQQdvsTkejOWzmckTQ-6" value="" style="endArrow=none;html=1;rounded=0;align=center;fontFamily=Times New Roman;fontStyle=1" edge="1" parent="1">
          <mxGeometry width="50" height="50" relative="1" as="geometry">
            <mxPoint x="320" y="496.51" as="sourcePoint" />
            <mxPoint x="560" y="496.51" as="targetPoint" />
          </mxGeometry>
        </mxCell>
        <mxCell id="vJQQQdvsTkejOWzmckTQ-7" value="" style="endArrow=none;html=1;rounded=0;align=center;fontFamily=Times New Roman;fontStyle=1" edge="1" parent="1">
          <mxGeometry width="50" height="50" relative="1" as="geometry">
            <mxPoint x="280" y="536.51" as="sourcePoint" />
            <mxPoint x="280" y="336.51" as="targetPoint" />
          </mxGeometry>
        </mxCell>
        <mxCell id="vJQQQdvsTkejOWzmckTQ-8" value="" style="endArrow=none;html=1;rounded=0;align=center;fontFamily=Times New Roman;fontStyle=1" edge="1" parent="1">
          <mxGeometry width="50" height="50" relative="1" as="geometry">
            <mxPoint x="320" y="496.51" as="sourcePoint" />
            <mxPoint x="320" y="376.51" as="targetPoint" />
          </mxGeometry>
        </mxCell>
        <mxCell id="vJQQQdvsTkejOWzmckTQ-9" value="&lt;span&gt;WSHP&lt;/span&gt;" style="whiteSpace=wrap;html=1;aspect=fixed;align=center;fontFamily=Times New Roman;fontStyle=1" vertex="1" parent="1">
          <mxGeometry x="259.99500000000006" y="476.51" width="80" height="80" as="geometry" />
        </mxCell>
        <mxCell id="vJQQQdvsTkejOWzmckTQ-10" value="" style="group;align=center;fontFamily=Times New Roman;fontStyle=1" connectable="0" vertex="1" parent="1">
          <mxGeometry x="350" y="336.51" width="30" height="40" as="geometry" />
        </mxCell>
        <mxCell id="vJQQQdvsTkejOWzmckTQ-11" value="" style="endArrow=none;html=1;rounded=0;strokeWidth=3;align=center;fontFamily=Times New Roman;fontStyle=1" edge="1" parent="vJQQQdvsTkejOWzmckTQ-10">
          <mxGeometry width="50" height="50" relative="1" as="geometry">
            <mxPoint as="sourcePoint" />
            <mxPoint x="30" as="targetPoint" />
          </mxGeometry>
        </mxCell>
        <mxCell id="vJQQQdvsTkejOWzmckTQ-12" value="" style="endArrow=none;html=1;rounded=0;strokeWidth=3;align=center;fontFamily=Times New Roman;fontStyle=1" edge="1" parent="vJQQQdvsTkejOWzmckTQ-10">
          <mxGeometry width="50" height="50" relative="1" as="geometry">
            <mxPoint y="40" as="sourcePoint" />
            <mxPoint x="30" y="40" as="targetPoint" />
          </mxGeometry>
        </mxCell>
        <mxCell id="vJQQQdvsTkejOWzmckTQ-13" value="" style="endArrow=none;html=1;rounded=0;align=center;fontFamily=Times New Roman;fontStyle=1" edge="1" parent="vJQQQdvsTkejOWzmckTQ-10">
          <mxGeometry width="50" height="50" relative="1" as="geometry">
            <mxPoint x="10" y="40" as="sourcePoint" />
            <mxPoint x="10" as="targetPoint" />
          </mxGeometry>
        </mxCell>
        <mxCell id="vJQQQdvsTkejOWzmckTQ-14" value="" style="endArrow=none;html=1;rounded=0;align=center;fontFamily=Times New Roman;fontStyle=1" edge="1" parent="vJQQQdvsTkejOWzmckTQ-10">
          <mxGeometry width="50" height="50" relative="1" as="geometry">
            <mxPoint x="20" y="40" as="sourcePoint" />
            <mxPoint x="20" as="targetPoint" />
          </mxGeometry>
        </mxCell>
        <mxCell id="vJQQQdvsTkejOWzmckTQ-15" value="" style="endArrow=none;html=1;rounded=0;align=center;fontFamily=Times New Roman;fontStyle=1" edge="1" parent="vJQQQdvsTkejOWzmckTQ-10">
          <mxGeometry width="50" height="50" relative="1" as="geometry">
            <mxPoint x="10" y="10" as="sourcePoint" />
            <mxPoint x="20" as="targetPoint" />
          </mxGeometry>
        </mxCell>
        <mxCell id="vJQQQdvsTkejOWzmckTQ-16" value="" style="endArrow=none;html=1;rounded=0;align=center;fontFamily=Times New Roman;fontStyle=1" edge="1" parent="vJQQQdvsTkejOWzmckTQ-10">
          <mxGeometry width="50" height="50" relative="1" as="geometry">
            <mxPoint x="10" y="10" as="sourcePoint" />
            <mxPoint x="20" y="20" as="targetPoint" />
          </mxGeometry>
        </mxCell>
        <mxCell id="vJQQQdvsTkejOWzmckTQ-17" value="" style="endArrow=none;html=1;rounded=0;align=center;fontFamily=Times New Roman;fontStyle=1" edge="1" parent="vJQQQdvsTkejOWzmckTQ-10">
          <mxGeometry width="50" height="50" relative="1" as="geometry">
            <mxPoint x="20" y="20" as="sourcePoint" />
            <mxPoint x="10" y="30" as="targetPoint" />
          </mxGeometry>
        </mxCell>
        <mxCell id="vJQQQdvsTkejOWzmckTQ-18" value="" style="endArrow=none;html=1;rounded=0;align=center;fontFamily=Times New Roman;fontStyle=1" edge="1" parent="vJQQQdvsTkejOWzmckTQ-10">
          <mxGeometry width="50" height="50" relative="1" as="geometry">
            <mxPoint x="20" y="40" as="sourcePoint" />
            <mxPoint x="10" y="30" as="targetPoint" />
          </mxGeometry>
        </mxCell>
        <mxCell id="vJQQQdvsTkejOWzmckTQ-19" value="" style="group;align=center;fontFamily=Times New Roman;fontStyle=1" connectable="0" vertex="1" parent="1">
          <mxGeometry x="430" y="496.51" width="30" height="40" as="geometry" />
        </mxCell>
        <mxCell id="vJQQQdvsTkejOWzmckTQ-20" value="" style="endArrow=none;html=1;rounded=0;strokeWidth=3;align=center;fontFamily=Times New Roman;fontStyle=1" edge="1" parent="vJQQQdvsTkejOWzmckTQ-19">
          <mxGeometry width="50" height="50" relative="1" as="geometry">
            <mxPoint as="sourcePoint" />
            <mxPoint x="30" as="targetPoint" />
          </mxGeometry>
        </mxCell>
        <mxCell id="vJQQQdvsTkejOWzmckTQ-21" value="" style="endArrow=none;html=1;rounded=0;strokeWidth=3;align=center;fontFamily=Times New Roman;fontStyle=1" edge="1" parent="vJQQQdvsTkejOWzmckTQ-19">
          <mxGeometry width="50" height="50" relative="1" as="geometry">
            <mxPoint y="40" as="sourcePoint" />
            <mxPoint x="30" y="40" as="targetPoint" />
          </mxGeometry>
        </mxCell>
        <mxCell id="vJQQQdvsTkejOWzmckTQ-22" value="" style="endArrow=none;html=1;rounded=0;align=center;fontFamily=Times New Roman;fontStyle=1" edge="1" parent="vJQQQdvsTkejOWzmckTQ-19">
          <mxGeometry width="50" height="50" relative="1" as="geometry">
            <mxPoint x="10" y="40" as="sourcePoint" />
            <mxPoint x="10" as="targetPoint" />
          </mxGeometry>
        </mxCell>
        <mxCell id="vJQQQdvsTkejOWzmckTQ-23" value="" style="endArrow=none;html=1;rounded=0;align=center;fontFamily=Times New Roman;fontStyle=1" edge="1" parent="vJQQQdvsTkejOWzmckTQ-19">
          <mxGeometry width="50" height="50" relative="1" as="geometry">
            <mxPoint x="20" y="40" as="sourcePoint" />
            <mxPoint x="20" as="targetPoint" />
          </mxGeometry>
        </mxCell>
        <mxCell id="vJQQQdvsTkejOWzmckTQ-24" value="" style="endArrow=none;html=1;rounded=0;align=center;fontFamily=Times New Roman;fontStyle=1" edge="1" parent="vJQQQdvsTkejOWzmckTQ-19">
          <mxGeometry width="50" height="50" relative="1" as="geometry">
            <mxPoint x="10" y="10" as="sourcePoint" />
            <mxPoint x="20" as="targetPoint" />
          </mxGeometry>
        </mxCell>
        <mxCell id="vJQQQdvsTkejOWzmckTQ-25" value="" style="endArrow=none;html=1;rounded=0;align=center;fontFamily=Times New Roman;fontStyle=1" edge="1" parent="vJQQQdvsTkejOWzmckTQ-19">
          <mxGeometry width="50" height="50" relative="1" as="geometry">
            <mxPoint x="10" y="10" as="sourcePoint" />
            <mxPoint x="20" y="20" as="targetPoint" />
          </mxGeometry>
        </mxCell>
        <mxCell id="vJQQQdvsTkejOWzmckTQ-26" value="" style="endArrow=none;html=1;rounded=0;align=center;fontFamily=Times New Roman;fontStyle=1" edge="1" parent="vJQQQdvsTkejOWzmckTQ-19">
          <mxGeometry width="50" height="50" relative="1" as="geometry">
            <mxPoint x="20" y="20" as="sourcePoint" />
            <mxPoint x="10" y="30" as="targetPoint" />
          </mxGeometry>
        </mxCell>
        <mxCell id="vJQQQdvsTkejOWzmckTQ-27" value="" style="endArrow=none;html=1;rounded=0;align=center;fontFamily=Times New Roman;fontStyle=1" edge="1" parent="vJQQQdvsTkejOWzmckTQ-19">
          <mxGeometry width="50" height="50" relative="1" as="geometry">
            <mxPoint x="20" y="40" as="sourcePoint" />
            <mxPoint x="10" y="30" as="targetPoint" />
          </mxGeometry>
        </mxCell>
        <mxCell id="vJQQQdvsTkejOWzmckTQ-28" value="" style="shape=mxgraph.pid.heat_exchangers.heat_exchanger_(coil_tubes);html=1;pointerEvents=1;align=center;verticalLabelPosition=bottom;verticalAlign=top;dashed=0;fontFamily=Times New Roman;fontStyle=1" vertex="1" parent="1">
          <mxGeometry x="560" y="436.51" width="40" height="20" as="geometry" />
        </mxCell>
        <mxCell id="vJQQQdvsTkejOWzmckTQ-29" value="" style="group;align=center;fontFamily=Times New Roman;fontStyle=1" connectable="0" vertex="1" parent="1">
          <mxGeometry x="415" y="306.51" width="10" height="50" as="geometry" />
        </mxCell>
        <mxCell id="vJQQQdvsTkejOWzmckTQ-30" value="" style="endArrow=none;html=1;rounded=0;align=center;fontFamily=Times New Roman;fontStyle=1" edge="1" parent="vJQQQdvsTkejOWzmckTQ-29">
          <mxGeometry width="50" height="50" relative="1" as="geometry">
            <mxPoint x="4.899999999999977" y="40" as="sourcePoint" />
            <mxPoint x="4.899999999999977" y="20" as="targetPoint" />
          </mxGeometry>
        </mxCell>
        <mxCell id="vJQQQdvsTkejOWzmckTQ-31" value="&lt;font style=&quot;font-size: 6px;&quot;&gt;RH&lt;/font&gt;" style="rounded=0;whiteSpace=wrap;html=1;align=center;fontFamily=Times New Roman;fontStyle=1" vertex="1" parent="vJQQQdvsTkejOWzmckTQ-29">
          <mxGeometry width="10" height="20" as="geometry" />
        </mxCell>
        <mxCell id="vJQQQdvsTkejOWzmckTQ-32" value="" style="ellipse;whiteSpace=wrap;html=1;aspect=fixed;align=center;fontFamily=Times New Roman;fontStyle=1" vertex="1" parent="vJQQQdvsTkejOWzmckTQ-29">
          <mxGeometry y="40" width="10" height="10" as="geometry" />
        </mxCell>
        <mxCell id="vJQQQdvsTkejOWzmckTQ-33" value="" style="group;align=center;fontFamily=Times New Roman;fontStyle=1" connectable="0" vertex="1" parent="1">
          <mxGeometry x="400" y="306.51" width="10" height="50" as="geometry" />
        </mxCell>
        <mxCell id="vJQQQdvsTkejOWzmckTQ-34" value="" style="endArrow=none;html=1;rounded=0;align=center;fontFamily=Times New Roman;fontStyle=1" edge="1" parent="vJQQQdvsTkejOWzmckTQ-33">
          <mxGeometry width="50" height="50" relative="1" as="geometry">
            <mxPoint x="4.899999999999977" y="40" as="sourcePoint" />
            <mxPoint x="4.899999999999977" y="20" as="targetPoint" />
          </mxGeometry>
        </mxCell>
        <mxCell id="vJQQQdvsTkejOWzmckTQ-35" value="&lt;font style=&quot;font-size: 6px;&quot;&gt;T&lt;/font&gt;" style="rounded=0;whiteSpace=wrap;html=1;align=center;fontFamily=Times New Roman;fontStyle=1" vertex="1" parent="vJQQQdvsTkejOWzmckTQ-33">
          <mxGeometry width="10" height="20" as="geometry" />
        </mxCell>
        <mxCell id="vJQQQdvsTkejOWzmckTQ-36" value="" style="ellipse;whiteSpace=wrap;html=1;aspect=fixed;align=center;fontFamily=Times New Roman;fontStyle=1" vertex="1" parent="vJQQQdvsTkejOWzmckTQ-33">
          <mxGeometry y="40" width="10" height="10" as="geometry" />
        </mxCell>
        <mxCell id="vJQQQdvsTkejOWzmckTQ-37" value="" style="group;align=center;fontFamily=Times New Roman;fontStyle=1" connectable="0" vertex="1" parent="1">
          <mxGeometry x="430" y="306.51" width="10" height="50" as="geometry" />
        </mxCell>
        <mxCell id="vJQQQdvsTkejOWzmckTQ-38" value="" style="endArrow=none;html=1;rounded=0;align=center;fontFamily=Times New Roman;fontStyle=1" edge="1" parent="vJQQQdvsTkejOWzmckTQ-37">
          <mxGeometry width="50" height="50" relative="1" as="geometry">
            <mxPoint x="4.899999999999977" y="40" as="sourcePoint" />
            <mxPoint x="4.899999999999977" y="20" as="targetPoint" />
          </mxGeometry>
        </mxCell>
        <mxCell id="vJQQQdvsTkejOWzmckTQ-39" value="&lt;font style=&quot;font-size: 6px;&quot;&gt;F&lt;/font&gt;" style="rounded=0;whiteSpace=wrap;html=1;align=center;fontFamily=Times New Roman;fontStyle=1" vertex="1" parent="vJQQQdvsTkejOWzmckTQ-37">
          <mxGeometry width="10" height="20" as="geometry" />
        </mxCell>
        <mxCell id="vJQQQdvsTkejOWzmckTQ-40" value="" style="ellipse;whiteSpace=wrap;html=1;aspect=fixed;align=center;fontFamily=Times New Roman;fontStyle=1" vertex="1" parent="vJQQQdvsTkejOWzmckTQ-37">
          <mxGeometry y="40" width="10" height="10" as="geometry" />
        </mxCell>
        <mxCell id="vJQQQdvsTkejOWzmckTQ-41" value="" style="group;rotation=-180;align=center;fontFamily=Times New Roman;fontStyle=1" connectable="0" vertex="1" parent="1">
          <mxGeometry x="390" y="516.51" width="10" height="50" as="geometry" />
        </mxCell>
        <mxCell id="vJQQQdvsTkejOWzmckTQ-42" value="" style="endArrow=none;html=1;rounded=0;align=center;fontFamily=Times New Roman;fontStyle=1" edge="1" parent="vJQQQdvsTkejOWzmckTQ-41">
          <mxGeometry width="50" height="50" relative="1" as="geometry">
            <mxPoint x="5" y="10" as="sourcePoint" />
            <mxPoint x="5" y="30" as="targetPoint" />
          </mxGeometry>
        </mxCell>
        <mxCell id="vJQQQdvsTkejOWzmckTQ-43" value="" style="ellipse;whiteSpace=wrap;html=1;aspect=fixed;rotation=-180;align=center;fontFamily=Times New Roman;fontStyle=1" vertex="1" parent="vJQQQdvsTkejOWzmckTQ-41">
          <mxGeometry width="10" height="10" as="geometry" />
        </mxCell>
        <mxCell id="vJQQQdvsTkejOWzmckTQ-44" value="&lt;font style=&quot;font-size: 6px;&quot;&gt;T&lt;/font&gt;" style="rounded=0;whiteSpace=wrap;html=1;align=center;fontFamily=Times New Roman;fontStyle=1" vertex="1" parent="vJQQQdvsTkejOWzmckTQ-41">
          <mxGeometry y="30" width="10" height="20" as="geometry" />
        </mxCell>
        <mxCell id="vJQQQdvsTkejOWzmckTQ-45" value="" style="group;rotation=-180;align=center;fontFamily=Times New Roman;fontStyle=1" connectable="0" vertex="1" parent="1">
          <mxGeometry x="370" y="516.51" width="10" height="50" as="geometry" />
        </mxCell>
        <mxCell id="vJQQQdvsTkejOWzmckTQ-46" value="" style="endArrow=none;html=1;rounded=0;align=center;fontFamily=Times New Roman;fontStyle=1" edge="1" parent="vJQQQdvsTkejOWzmckTQ-45">
          <mxGeometry width="50" height="50" relative="1" as="geometry">
            <mxPoint x="5" y="10" as="sourcePoint" />
            <mxPoint x="5" y="30" as="targetPoint" />
          </mxGeometry>
        </mxCell>
        <mxCell id="vJQQQdvsTkejOWzmckTQ-47" value="" style="group;align=center;fontFamily=Times New Roman;fontStyle=1" connectable="0" vertex="1" parent="vJQQQdvsTkejOWzmckTQ-45">
          <mxGeometry x="-8.881784197001252e-16" y="-8.881784197001252e-16" width="10" height="50" as="geometry" />
        </mxCell>
        <mxCell id="vJQQQdvsTkejOWzmckTQ-48" value="" style="ellipse;whiteSpace=wrap;html=1;aspect=fixed;rotation=-180;align=center;fontFamily=Times New Roman;fontStyle=1" vertex="1" parent="vJQQQdvsTkejOWzmckTQ-47">
          <mxGeometry x="8.881784197001252e-16" y="8.881784197001252e-16" width="10" height="10" as="geometry" />
        </mxCell>
        <mxCell id="vJQQQdvsTkejOWzmckTQ-49" value="&lt;font style=&quot;font-size: 6px;&quot;&gt;RH&lt;/font&gt;" style="rounded=0;whiteSpace=wrap;html=1;align=center;fontFamily=Times New Roman;fontStyle=1" vertex="1" parent="vJQQQdvsTkejOWzmckTQ-47">
          <mxGeometry x="8.881784197001252e-16" y="30" width="10" height="20" as="geometry" />
        </mxCell>
        <mxCell id="vJQQQdvsTkejOWzmckTQ-50" value="" style="endArrow=classic;html=1;rounded=0;strokeWidth=3;align=center;fontFamily=Times New Roman;fontStyle=1" edge="1" parent="1">
          <mxGeometry width="50" height="50" relative="1" as="geometry">
            <mxPoint x="299.79999999999995" y="436.51" as="sourcePoint" />
            <mxPoint x="299.79999999999995" y="386.51" as="targetPoint" />
          </mxGeometry>
        </mxCell>
        <mxCell id="vJQQQdvsTkejOWzmckTQ-51" value="" style="endArrow=classic;html=1;rounded=0;strokeWidth=3;align=center;fontFamily=Times New Roman;fontStyle=1" edge="1" parent="1">
          <mxGeometry width="50" height="50" relative="1" as="geometry">
            <mxPoint x="480" y="356.51" as="sourcePoint" />
            <mxPoint x="520" y="356.51" as="targetPoint" />
          </mxGeometry>
        </mxCell>
        <mxCell id="vJQQQdvsTkejOWzmckTQ-52" value="" style="endArrow=classic;html=1;rounded=0;strokeWidth=3;align=center;fontFamily=Times New Roman;fontStyle=1" edge="1" parent="1">
          <mxGeometry width="50" height="50" relative="1" as="geometry">
            <mxPoint x="540" y="516.51" as="sourcePoint" />
            <mxPoint x="490" y="516.51" as="targetPoint" />
          </mxGeometry>
        </mxCell>
        <mxCell id="vJQQQdvsTkejOWzmckTQ-53" value="" style="endArrow=none;html=1;rounded=0;fillColor=#dae8fc;strokeColor=#1A1A1A;align=center;fontFamily=Times New Roman;fontStyle=1;strokeWidth=2;" edge="1" parent="1">
          <mxGeometry width="50" height="50" relative="1" as="geometry">
            <mxPoint x="160" y="506.51" as="sourcePoint" />
            <mxPoint x="260" y="506.51" as="targetPoint" />
          </mxGeometry>
        </mxCell>
        <mxCell id="vJQQQdvsTkejOWzmckTQ-54" value="" style="endArrow=none;html=1;rounded=0;fillColor=#dae8fc;strokeColor=#1A1A1A;align=center;fontFamily=Times New Roman;fontStyle=1;strokeWidth=2;" edge="1" parent="1">
          <mxGeometry width="50" height="50" relative="1" as="geometry">
            <mxPoint x="160" y="526.51" as="sourcePoint" />
            <mxPoint x="260" y="526.51" as="targetPoint" />
          </mxGeometry>
        </mxCell>
        <mxCell id="vJQQQdvsTkejOWzmckTQ-55" value="" style="endArrow=none;html=1;rounded=0;fillColor=#dae8fc;strokeColor=#1A1A1A;dashed=1;dashPattern=1 2;align=center;fontFamily=Times New Roman;fontStyle=1" edge="1" parent="1">
          <mxGeometry width="50" height="50" relative="1" as="geometry">
            <mxPoint x="140" y="506.51" as="sourcePoint" />
            <mxPoint x="160" y="506.51" as="targetPoint" />
          </mxGeometry>
        </mxCell>
        <mxCell id="vJQQQdvsTkejOWzmckTQ-56" value="" style="endArrow=none;html=1;rounded=0;fillColor=#dae8fc;strokeColor=#1A1A1A;dashed=1;dashPattern=1 2;align=center;fontFamily=Times New Roman;fontStyle=1" edge="1" parent="1">
          <mxGeometry width="50" height="50" relative="1" as="geometry">
            <mxPoint x="140" y="526.51" as="sourcePoint" />
            <mxPoint x="160" y="526.51" as="targetPoint" />
          </mxGeometry>
        </mxCell>
        <mxCell id="vJQQQdvsTkejOWzmckTQ-57" value="" style="endArrow=classic;html=1;rounded=0;fillColor=#dae8fc;strokeColor=#3399FF;align=center;fontFamily=Times New Roman;fontStyle=1;strokeWidth=2;" edge="1" parent="1">
          <mxGeometry width="50" height="50" relative="1" as="geometry">
            <mxPoint x="210" y="506.51" as="sourcePoint" />
            <mxPoint x="240" y="506.51" as="targetPoint" />
          </mxGeometry>
        </mxCell>
        <mxCell id="vJQQQdvsTkejOWzmckTQ-58" value="" style="endArrow=classic;html=1;rounded=0;fillColor=#dae8fc;strokeColor=#3399FF;align=center;fontFamily=Times New Roman;fontStyle=1;strokeWidth=2;" edge="1" parent="1">
          <mxGeometry width="50" height="50" relative="1" as="geometry">
            <mxPoint x="240" y="526.51" as="sourcePoint" />
            <mxPoint x="210" y="526.51" as="targetPoint" />
          </mxGeometry>
        </mxCell>
        <mxCell id="vJQQQdvsTkejOWzmckTQ-59" value="" style="group;align=center;fontFamily=Times New Roman;fontStyle=1" connectable="0" vertex="1" parent="1">
          <mxGeometry x="170" y="461.51" width="10" height="50" as="geometry" />
        </mxCell>
        <mxCell id="vJQQQdvsTkejOWzmckTQ-60" value="" style="endArrow=none;html=1;rounded=0;align=center;fontFamily=Times New Roman;fontStyle=1" edge="1" parent="vJQQQdvsTkejOWzmckTQ-59">
          <mxGeometry width="50" height="50" relative="1" as="geometry">
            <mxPoint x="4.899999999999977" y="40" as="sourcePoint" />
            <mxPoint x="4.899999999999977" y="20" as="targetPoint" />
          </mxGeometry>
        </mxCell>
        <mxCell id="vJQQQdvsTkejOWzmckTQ-61" value="&lt;font style=&quot;font-size: 6px;&quot;&gt;F&lt;/font&gt;" style="rounded=0;whiteSpace=wrap;html=1;align=center;fontFamily=Times New Roman;fontStyle=1" vertex="1" parent="vJQQQdvsTkejOWzmckTQ-59">
          <mxGeometry width="10" height="20" as="geometry" />
        </mxCell>
        <mxCell id="vJQQQdvsTkejOWzmckTQ-62" value="" style="ellipse;whiteSpace=wrap;html=1;aspect=fixed;align=center;fontFamily=Times New Roman;fontStyle=1" vertex="1" parent="vJQQQdvsTkejOWzmckTQ-59">
          <mxGeometry y="40" width="10" height="10" as="geometry" />
        </mxCell>
        <mxCell id="vJQQQdvsTkejOWzmckTQ-63" value="" style="group;align=center;fontFamily=Times New Roman;fontStyle=1" connectable="0" vertex="1" parent="1">
          <mxGeometry x="186" y="461.51" width="10" height="50" as="geometry" />
        </mxCell>
        <mxCell id="vJQQQdvsTkejOWzmckTQ-64" value="" style="endArrow=none;html=1;rounded=0;align=center;fontFamily=Times New Roman;fontStyle=1" edge="1" parent="vJQQQdvsTkejOWzmckTQ-63">
          <mxGeometry width="50" height="50" relative="1" as="geometry">
            <mxPoint x="4.899999999999977" y="40" as="sourcePoint" />
            <mxPoint x="4.899999999999977" y="20" as="targetPoint" />
          </mxGeometry>
        </mxCell>
        <mxCell id="vJQQQdvsTkejOWzmckTQ-65" value="&lt;font style=&quot;font-size: 6px;&quot;&gt;T&lt;/font&gt;" style="rounded=0;whiteSpace=wrap;html=1;align=center;fontFamily=Times New Roman;fontStyle=1" vertex="1" parent="vJQQQdvsTkejOWzmckTQ-63">
          <mxGeometry width="10" height="20" as="geometry" />
        </mxCell>
        <mxCell id="vJQQQdvsTkejOWzmckTQ-66" value="" style="ellipse;whiteSpace=wrap;html=1;aspect=fixed;align=center;fontFamily=Times New Roman;fontStyle=1" vertex="1" parent="vJQQQdvsTkejOWzmckTQ-63">
          <mxGeometry y="40" width="10" height="10" as="geometry" />
        </mxCell>
        <mxCell id="vJQQQdvsTkejOWzmckTQ-67" value="" style="group;align=center;fontFamily=Times New Roman;fontStyle=1" connectable="0" vertex="1" parent="1">
          <mxGeometry x="565" y="386.51" width="55" height="20" as="geometry" />
        </mxCell>
        <mxCell id="vJQQQdvsTkejOWzmckTQ-68" value="" style="shape=mxgraph.pid.feeders.spray_nozzle;html=1;pointerEvents=1;align=center;verticalLabelPosition=bottom;verticalAlign=top;dashed=0;fontFamily=Times New Roman;fontStyle=1" vertex="1" parent="vJQQQdvsTkejOWzmckTQ-67">
          <mxGeometry width="30" height="20" as="geometry" />
        </mxCell>
        <mxCell id="vJQQQdvsTkejOWzmckTQ-69" value="" style="endArrow=none;html=1;rounded=0;align=center;fontFamily=Times New Roman;fontStyle=1" edge="1" parent="vJQQQdvsTkejOWzmckTQ-67">
          <mxGeometry width="50" height="50" relative="1" as="geometry">
            <mxPoint x="15" as="sourcePoint" />
            <mxPoint x="55" as="targetPoint" />
          </mxGeometry>
        </mxCell>
        <mxCell id="vJQQQdvsTkejOWzmckTQ-94" style="edgeStyle=orthogonalEdgeStyle;rounded=0;orthogonalLoop=1;jettySize=auto;html=1;exitX=0.5;exitY=0;exitDx=0;exitDy=0;entryX=0.5;entryY=1;entryDx=0;entryDy=0;endArrow=oval;endFill=1;strokeColor=#FF0000;" edge="1" parent="1" source="vJQQQdvsTkejOWzmckTQ-70" target="vJQQQdvsTkejOWzmckTQ-9">
          <mxGeometry relative="1" as="geometry" />
        </mxCell>
        <mxCell id="vJQQQdvsTkejOWzmckTQ-70" value="&lt;font style=&quot;font-size: 13px;&quot;&gt;wshp_power&lt;/font&gt;" style="rounded=1;whiteSpace=wrap;html=1;fontStyle=1;container=0;strokeColor=none;fontSize=13;fontColor=#FF0000;align=center;fontFamily=Times New Roman;verticalAlign=middle;" vertex="1" parent="1">
          <mxGeometry x="254.99500000000006" y="570.51" width="90" height="15.5" as="geometry" />
        </mxCell>
        <mxCell id="vJQQQdvsTkejOWzmckTQ-71" value="&lt;font style=&quot;font-size: 13px;&quot;&gt;iw_flow&lt;/font&gt;" style="rounded=1;whiteSpace=wrap;html=1;fontStyle=1;container=0;strokeColor=none;fontSize=13;align=center;fontColor=#FF0000;fontFamily=Times New Roman;" vertex="1" parent="1">
          <mxGeometry x="130.09999999999997" y="441.01" width="55.9" height="15.5" as="geometry" />
        </mxCell>
        <mxCell id="vJQQQdvsTkejOWzmckTQ-73" value="&lt;font style=&quot;font-size: 13px;&quot;&gt;utube_down_temp&lt;/font&gt;" style="rounded=1;whiteSpace=wrap;html=1;fontStyle=1;container=0;strokeColor=none;fontSize=13;align=center;fontColor=#FF0000;fontFamily=Times New Roman;" vertex="1" parent="1">
          <mxGeometry x="131.04999999999998" y="570.51" width="119.9" height="15.5" as="geometry" />
        </mxCell>
        <mxCell id="vJQQQdvsTkejOWzmckTQ-74" value="&lt;font style=&quot;font-size: 13px;&quot;&gt;comp_spd&lt;/font&gt;" style="rounded=1;whiteSpace=wrap;html=1;fontStyle=1;container=0;strokeColor=none;fontSize=13;align=center;fontColor=#FF0000;fontFamily=Times New Roman;verticalAlign=middle;" vertex="1" parent="1">
          <mxGeometry x="266.83000000000004" y="586" width="66.33" height="15.5" as="geometry" />
        </mxCell>
        <mxCell id="vJQQQdvsTkejOWzmckTQ-75" value="&lt;font style=&quot;font-size: 13px;&quot;&gt;sa_flow&lt;/font&gt;" style="rounded=1;whiteSpace=wrap;html=1;fontStyle=1;container=0;strokeColor=none;fontSize=13;align=center;fontColor=#FF0000;fontFamily=Times New Roman;" vertex="1" parent="1">
          <mxGeometry x="442" y="300" width="48" height="15.5" as="geometry" />
        </mxCell>
        <mxCell id="vJQQQdvsTkejOWzmckTQ-76" value="&lt;font style=&quot;font-size: 13px;&quot;&gt;sa_temp&lt;/font&gt;" style="rounded=1;whiteSpace=wrap;html=1;fontStyle=1;container=0;strokeColor=none;fontSize=13;align=center;fontColor=#FF0000;fontFamily=Times New Roman;" vertex="1" parent="1">
          <mxGeometry x="352.96" y="300" width="44.08" height="15.5" as="geometry" />
        </mxCell>
        <mxCell id="vJQQQdvsTkejOWzmckTQ-77" value="&lt;font style=&quot;font-size: 13px;&quot;&gt;sa_rh&lt;/font&gt;" style="rounded=1;whiteSpace=wrap;html=1;fontStyle=1;container=0;strokeColor=none;fontSize=13;align=center;fontColor=#FF0000;fontFamily=Times New Roman;" vertex="1" parent="1">
          <mxGeometry x="400" y="288.51" width="40" height="14.49" as="geometry" />
        </mxCell>
        <mxCell id="vJQQQdvsTkejOWzmckTQ-78" value="&lt;font style=&quot;font-size: 13px;&quot;&gt;zn_temp&lt;/font&gt;" style="rounded=1;whiteSpace=wrap;html=1;fontStyle=1;container=0;strokeColor=none;fontSize=13;align=center;fontColor=#FF0000;fontFamily=Times New Roman;verticalAlign=middle;" vertex="1" parent="1">
          <mxGeometry x="401.5799999999999" y="550" width="53.16" height="15.5" as="geometry" />
        </mxCell>
        <mxCell id="vJQQQdvsTkejOWzmckTQ-79" value="&lt;font style=&quot;font-size: 13px;&quot;&gt;zn_rh&lt;/font&gt;" style="rounded=1;whiteSpace=wrap;html=1;fontStyle=1;container=0;strokeColor=none;fontSize=13;align=center;fontColor=#FF0000;fontFamily=Times New Roman;verticalAlign=middle;" vertex="1" parent="1">
          <mxGeometry x="348.41999999999996" y="566.51" width="53.16" height="15.5" as="geometry" />
        </mxCell>
        <mxCell id="vJQQQdvsTkejOWzmckTQ-80" value="&lt;font style=&quot;font-size: 13px;&quot;&gt;iw_temp&lt;/font&gt;" style="rounded=1;whiteSpace=wrap;html=1;fontStyle=1;container=0;strokeColor=none;fontSize=13;align=center;fontColor=#FF0000;fontFamily=Times New Roman;" vertex="1" parent="1">
          <mxGeometry x="199" y="461.51" width="54" height="13.5" as="geometry" />
        </mxCell>
        <mxCell id="vJQQQdvsTkejOWzmckTQ-81" value="" style="group;rotation=-180;align=center;fontFamily=Times New Roman;fontStyle=1" connectable="0" vertex="1" parent="1">
          <mxGeometry x="186" y="520.51" width="10" height="50" as="geometry" />
        </mxCell>
        <mxCell id="vJQQQdvsTkejOWzmckTQ-82" value="" style="endArrow=none;html=1;rounded=0;align=center;fontFamily=Times New Roman;fontStyle=1" edge="1" parent="vJQQQdvsTkejOWzmckTQ-81">
          <mxGeometry width="50" height="50" relative="1" as="geometry">
            <mxPoint x="5" y="10" as="sourcePoint" />
            <mxPoint x="5" y="30" as="targetPoint" />
          </mxGeometry>
        </mxCell>
        <mxCell id="vJQQQdvsTkejOWzmckTQ-83" value="" style="ellipse;whiteSpace=wrap;html=1;aspect=fixed;rotation=-180;align=center;fontFamily=Times New Roman;fontStyle=1" vertex="1" parent="vJQQQdvsTkejOWzmckTQ-81">
          <mxGeometry width="10" height="10" as="geometry" />
        </mxCell>
        <mxCell id="vJQQQdvsTkejOWzmckTQ-84" value="&lt;font style=&quot;font-size: 6px;&quot;&gt;T&lt;/font&gt;" style="rounded=0;whiteSpace=wrap;html=1;align=center;fontFamily=Times New Roman;fontStyle=1" vertex="1" parent="vJQQQdvsTkejOWzmckTQ-81">
          <mxGeometry y="30" width="10" height="20" as="geometry" />
        </mxCell>
        <mxCell id="vJQQQdvsTkejOWzmckTQ-86" value="&lt;font style=&quot;font-size: 13px;&quot;&gt;fan_spd&lt;/font&gt;" style="rounded=1;whiteSpace=wrap;html=1;fontStyle=1;container=0;strokeColor=none;fontSize=13;align=center;fontColor=#FF0000;fontFamily=Times New Roman;verticalAlign=middle;" vertex="1" parent="1">
          <mxGeometry x="266.83000000000004" y="601.5" width="66.33" height="15.5" as="geometry" />
        </mxCell>
        <mxCell id="vJQQQdvsTkejOWzmckTQ-88" value="&lt;font color=&quot;#1a1a1a&quot; style=&quot;font-size: 13px;&quot;&gt;mixer&lt;/font&gt;" style="rounded=1;whiteSpace=wrap;html=1;fontStyle=1;container=0;strokeColor=none;fontSize=13;align=center;fontColor=#FF0000;fontFamily=Times New Roman;" vertex="1" parent="1">
          <mxGeometry x="342.96" y="380.51" width="44.08" height="15.5" as="geometry" />
        </mxCell>
        <mxCell id="vJQQQdvsTkejOWzmckTQ-89" value="&lt;font color=&quot;#1a1a1a&quot; style=&quot;font-size: 13px;&quot;&gt;mixer&lt;/font&gt;" style="rounded=1;whiteSpace=wrap;html=1;fontStyle=1;container=0;strokeColor=none;fontSize=13;align=center;fontColor=#FF0000;fontFamily=Times New Roman;" vertex="1" parent="1">
          <mxGeometry x="422.96" y="476.51" width="44.08" height="15.5" as="geometry" />
        </mxCell>
        <mxCell id="vJQQQdvsTkejOWzmckTQ-90" value="&lt;font color=&quot;#1a1a1a&quot;&gt;emulator coil&lt;/font&gt;" style="rounded=1;whiteSpace=wrap;html=1;fontStyle=1;container=0;strokeColor=none;fontSize=13;align=center;fontColor=#FF0000;fontFamily=Times New Roman;" vertex="1" parent="1">
          <mxGeometry x="490" y="434.38" width="64.08" height="24.26" as="geometry" />
        </mxCell>
        <mxCell id="vJQQQdvsTkejOWzmckTQ-91" value="&lt;font color=&quot;#1a1a1a&quot;&gt;emulator steam spray&lt;/font&gt;" style="rounded=1;whiteSpace=wrap;html=1;fontStyle=1;container=0;strokeColor=none;fontSize=13;align=center;fontColor=#FF0000;fontFamily=Times New Roman;" vertex="1" parent="1">
          <mxGeometry x="480" y="386.51" width="74.08" height="24.26" as="geometry" />
        </mxCell>
        <mxCell id="vJQQQdvsTkejOWzmckTQ-92" value="&lt;font color=&quot;#1a1a1a&quot; style=&quot;font-size: 13px;&quot;&gt;air&lt;/font&gt;" style="rounded=1;whiteSpace=wrap;html=1;fontStyle=1;container=0;strokeColor=none;fontSize=13;align=center;fontColor=#FF0000;fontFamily=Times New Roman;" vertex="1" parent="1">
          <mxGeometry x="288.97999999999996" y="371.01" width="22.04" height="15.5" as="geometry" />
        </mxCell>
        <mxCell id="vJQQQdvsTkejOWzmckTQ-93" value="&lt;font color=&quot;#1a1a1a&quot; style=&quot;font-size: 13px;&quot;&gt;water&lt;/font&gt;" style="rounded=1;whiteSpace=wrap;html=1;fontStyle=1;container=0;strokeColor=none;fontSize=13;align=center;fontColor=#FF0000;fontFamily=Times New Roman;" vertex="1" parent="1">
          <mxGeometry x="198.99999999999994" y="490" width="22.04" height="15.5" as="geometry" />
        </mxCell>
      </root>
    </mxGraphModel>
  </diagram>
</mxfile>
